<?xml version="1.0" encoding="utf-8" standalone="no"?>
<!DOCTYPE svg PUBLIC "-//W3C//DTD SVG 1.1//EN"
  "http://www.w3.org/Graphics/SVG/1.1/DTD/svg11.dtd">
<svg xmlns:xlink="http://www.w3.org/1999/xlink" width="562.176pt" height="557.568pt" viewBox="0 0 562.176 557.568" xmlns="http://www.w3.org/2000/svg" version="1.1">
 <metadata>
  <rdf:RDF xmlns:dc="http://purl.org/dc/elements/1.1/" xmlns:cc="http://creativecommons.org/ns#" xmlns:rdf="http://www.w3.org/1999/02/22-rdf-syntax-ns#">
   <cc:Work>
    <dc:type rdf:resource="http://purl.org/dc/dcmitype/StillImage"/>
    <dc:date>2025-05-21T15:52:07.814860</dc:date>
    <dc:format>image/svg+xml</dc:format>
    <dc:creator>
     <cc:Agent>
      <dc:title>Matplotlib v3.8.0, https://matplotlib.org/</dc:title>
     </cc:Agent>
    </dc:creator>
   </cc:Work>
  </rdf:RDF>
 </metadata>
 <defs>
  <style type="text/css">*{stroke-linejoin: round; stroke-linecap: butt}</style>
 </defs>
 <g id="figure_1">
  <g id="patch_1">
   <path d="M 0 557.568 
L 562.176 557.568 
L 562.176 0 
L 0 0 
z
" style="fill: #ffffff"/>
  </g>
  <g id="axes_1">
   <g id="patch_2">
    <path d="M 67.46112 206.65581 
L 553.74336 206.65581 
L 553.74336 66.370048 
L 67.46112 66.370048 
z
" style="fill: #ffffff"/>
   </g>
   <g id="patch_3">
    <path d="M 89.564858 206.65581 
L 105.353243 206.65581 
L 105.353243 145.199807 
L 89.564858 145.199807 
z
" clip-path="url(#pe51a6c5631)" style="fill: #1f77b4"/>
   </g>
   <g id="patch_4">
    <path d="M 105.353243 206.65581 
L 121.141627 206.65581 
L 121.141627 112.772555 
L 105.353243 112.772555 
z
" clip-path="url(#pe51a6c5631)" style="fill: #ff7f0e"/>
   </g>
   <g id="patch_5">
    <path d="M 121.141627 206.65581 
L 136.930011 206.65581 
L 136.930011 136.968212 
L 121.141627 136.968212 
z
" clip-path="url(#pe51a6c5631)" style="fill: #2ca02c"/>
   </g>
   <g id="patch_6">
    <path d="M 136.930011 206.65581 
L 152.718396 206.65581 
L 152.718396 126.335351 
L 136.930011 126.335351 
z
" clip-path="url(#pe51a6c5631)" style="fill: #d62728"/>
   </g>
   <g id="patch_7">
    <path d="M 152.718396 206.65581 
L 168.50678 206.65581 
L 168.50678 76.208463 
L 152.718396 76.208463 
z
" clip-path="url(#pe51a6c5631)" style="fill: #9467bd"/>
   </g>
   <g id="patch_8">
    <path d="M 196.136453 206.65581 
L 211.924837 206.65581 
L 211.924837 156.447546 
L 196.136453 156.447546 
z
" clip-path="url(#pe51a6c5631)" style="fill: #ff7f0e"/>
   </g>
   <g id="patch_9">
    <path d="M 211.924837 206.65581 
L 227.713222 206.65581 
L 227.713222 137.364227 
L 211.924837 137.364227 
z
" clip-path="url(#pe51a6c5631)" style="fill: #2ca02c"/>
   </g>
   <g id="patch_10">
    <path d="M 227.713222 206.65581 
L 243.501606 206.65581 
L 243.501606 108.118193 
L 227.713222 108.118193 
z
" clip-path="url(#pe51a6c5631)" style="fill: #d62728"/>
   </g>
   <g id="patch_11">
    <path d="M 243.501606 206.65581 
L 259.289991 206.65581 
L 259.289991 106.263527 
L 243.501606 106.263527 
z
" clip-path="url(#pe51a6c5631)" style="fill: #9467bd"/>
   </g>
   <g id="patch_12">
    <path d="M 302.708048 206.65581 
L 318.496432 206.65581 
L 318.496432 149.110352 
L 302.708048 149.110352 
z
" clip-path="url(#pe51a6c5631)" style="fill: #2ca02c"/>
   </g>
   <g id="patch_13">
    <path d="M 318.496432 206.65581 
L 334.284817 206.65581 
L 334.284817 139.744776 
L 318.496432 139.744776 
z
" clip-path="url(#pe51a6c5631)" style="fill: #d62728"/>
   </g>
   <g id="patch_14">
    <path d="M 334.284817 206.65581 
L 350.073201 206.65581 
L 350.073201 135.930008 
L 334.284817 135.930008 
z
" clip-path="url(#pe51a6c5631)" style="fill: #9467bd"/>
   </g>
   <g id="patch_15">
    <path d="M 409.279643 206.65581 
L 425.068027 206.65581 
L 425.068027 157.801317 
L 409.279643 157.801317 
z
" clip-path="url(#pe51a6c5631)" style="fill: #d62728"/>
   </g>
   <g id="patch_16">
    <path d="M 425.068027 206.65581 
L 440.856411 206.65581 
L 440.856411 151.813436 
L 425.068027 151.813436 
z
" clip-path="url(#pe51a6c5631)" style="fill: #9467bd"/>
   </g>
   <g id="patch_17">
    <path d="M 515.851237 206.65581 
L 531.639622 206.65581 
L 531.639622 120.895555 
L 515.851237 120.895555 
z
" clip-path="url(#pe51a6c5631)" style="fill: #9467bd"/>
   </g>
   <g id="matplotlib.axis_1">
    <g id="xtick_1">
     <g id="line2d_1">
      <path d="M 129.035819 206.65581 
L 129.035819 66.370048 
" clip-path="url(#pe51a6c5631)" style="fill: none; stroke-dasharray: 2.96,1.28; stroke-dashoffset: 0; stroke: #b0b0b0; stroke-opacity: 0.4; stroke-width: 0.8"/>
     </g>
     <g id="line2d_2">
      <defs>
       <path id="md97fba16b8" d="M 0 0 
L 0 3.5 
" style="stroke: #000000; stroke-width: 0.8"/>
      </defs>
      <g>
       <use xlink:href="#md97fba16b8" x="129.035819" y="206.65581" style="stroke: #000000; stroke-width: 0.8"/>
      </g>
     </g>
    </g>
    <g id="xtick_2">
     <g id="line2d_3">
      <path d="M 227.713222 206.65581 
L 227.713222 66.370048 
" clip-path="url(#pe51a6c5631)" style="fill: none; stroke-dasharray: 2.96,1.28; stroke-dashoffset: 0; stroke: #b0b0b0; stroke-opacity: 0.4; stroke-width: 0.8"/>
     </g>
     <g id="line2d_4">
      <g>
       <use xlink:href="#md97fba16b8" x="227.713222" y="206.65581" style="stroke: #000000; stroke-width: 0.8"/>
      </g>
     </g>
    </g>
    <g id="xtick_3">
     <g id="line2d_5">
      <path d="M 326.390624 206.65581 
L 326.390624 66.370048 
" clip-path="url(#pe51a6c5631)" style="fill: none; stroke-dasharray: 2.96,1.28; stroke-dashoffset: 0; stroke: #b0b0b0; stroke-opacity: 0.4; stroke-width: 0.8"/>
     </g>
     <g id="line2d_6">
      <g>
       <use xlink:href="#md97fba16b8" x="326.390624" y="206.65581" style="stroke: #000000; stroke-width: 0.8"/>
      </g>
     </g>
    </g>
    <g id="xtick_4">
     <g id="line2d_7">
      <path d="M 425.068027 206.65581 
L 425.068027 66.370048 
" clip-path="url(#pe51a6c5631)" style="fill: none; stroke-dasharray: 2.96,1.28; stroke-dashoffset: 0; stroke: #b0b0b0; stroke-opacity: 0.4; stroke-width: 0.8"/>
     </g>
     <g id="line2d_8">
      <g>
       <use xlink:href="#md97fba16b8" x="425.068027" y="206.65581" style="stroke: #000000; stroke-width: 0.8"/>
      </g>
     </g>
    </g>
    <g id="xtick_5">
     <g id="line2d_9">
      <path d="M 523.74543 206.65581 
L 523.74543 66.370048 
" clip-path="url(#pe51a6c5631)" style="fill: none; stroke-dasharray: 2.96,1.28; stroke-dashoffset: 0; stroke: #b0b0b0; stroke-opacity: 0.4; stroke-width: 0.8"/>
     </g>
     <g id="line2d_10">
      <g>
       <use xlink:href="#md97fba16b8" x="523.74543" y="206.65581" style="stroke: #000000; stroke-width: 0.8"/>
      </g>
     </g>
    </g>
   </g>
   <g id="matplotlib.axis_2">
    <g id="ytick_1">
     <g id="line2d_11">
      <path d="M 67.46112 206.65581 
L 553.74336 206.65581 
" clip-path="url(#pe51a6c5631)" style="fill: none; stroke-dasharray: 2.96,1.28; stroke-dashoffset: 0; stroke: #b0b0b0; stroke-opacity: 0.4; stroke-width: 0.8"/>
     </g>
     <g id="line2d_12">
      <defs>
       <path id="m4216dcaa9b" d="M 0 0 
L -3.5 0 
" style="stroke: #000000; stroke-width: 0.8"/>
      </defs>
      <g>
       <use xlink:href="#m4216dcaa9b" x="67.46112" y="206.65581" style="stroke: #000000; stroke-width: 0.8"/>
      </g>
     </g>
     <g id="text_1">
      <!-- 0 -->
      <g transform="translate(54.09862 210.455029) scale(0.1 -0.1)">
       <defs>
        <path id="DejaVuSans-30" d="M 2034 4250 
Q 1547 4250 1301 3770 
Q 1056 3291 1056 2328 
Q 1056 1369 1301 889 
Q 1547 409 2034 409 
Q 2525 409 2770 889 
Q 3016 1369 3016 2328 
Q 3016 3291 2770 3770 
Q 2525 4250 2034 4250 
z
M 2034 4750 
Q 2819 4750 3233 4129 
Q 3647 3509 3647 2328 
Q 3647 1150 3233 529 
Q 2819 -91 2034 -91 
Q 1250 -91 836 529 
Q 422 1150 422 2328 
Q 422 3509 836 4129 
Q 1250 4750 2034 4750 
z
" transform="scale(0.015625)"/>
       </defs>
       <use xlink:href="#DejaVuSans-30"/>
      </g>
     </g>
    </g>
    <g id="ytick_2">
     <g id="line2d_13">
      <path d="M 67.46112 183.431844 
L 553.74336 183.431844 
" clip-path="url(#pe51a6c5631)" style="fill: none; stroke-dasharray: 2.96,1.28; stroke-dashoffset: 0; stroke: #b0b0b0; stroke-opacity: 0.4; stroke-width: 0.8"/>
     </g>
     <g id="line2d_14">
      <g>
       <use xlink:href="#m4216dcaa9b" x="67.46112" y="183.431844" style="stroke: #000000; stroke-width: 0.8"/>
      </g>
     </g>
     <g id="text_2">
      <!-- 25 -->
      <g transform="translate(47.73612 187.231063) scale(0.1 -0.1)">
       <defs>
        <path id="DejaVuSans-32" d="M 1228 531 
L 3431 531 
L 3431 0 
L 469 0 
L 469 531 
Q 828 903 1448 1529 
Q 2069 2156 2228 2338 
Q 2531 2678 2651 2914 
Q 2772 3150 2772 3378 
Q 2772 3750 2511 3984 
Q 2250 4219 1831 4219 
Q 1534 4219 1204 4116 
Q 875 4013 500 3803 
L 500 4441 
Q 881 4594 1212 4672 
Q 1544 4750 1819 4750 
Q 2544 4750 2975 4387 
Q 3406 4025 3406 3419 
Q 3406 3131 3298 2873 
Q 3191 2616 2906 2266 
Q 2828 2175 2409 1742 
Q 1991 1309 1228 531 
z
" transform="scale(0.015625)"/>
        <path id="DejaVuSans-35" d="M 691 4666 
L 3169 4666 
L 3169 4134 
L 1269 4134 
L 1269 2991 
Q 1406 3038 1543 3061 
Q 1681 3084 1819 3084 
Q 2600 3084 3056 2656 
Q 3513 2228 3513 1497 
Q 3513 744 3044 326 
Q 2575 -91 1722 -91 
Q 1428 -91 1123 -41 
Q 819 9 494 109 
L 494 744 
Q 775 591 1075 516 
Q 1375 441 1709 441 
Q 2250 441 2565 725 
Q 2881 1009 2881 1497 
Q 2881 1984 2565 2268 
Q 2250 2553 1709 2553 
Q 1456 2553 1204 2497 
Q 953 2441 691 2322 
L 691 4666 
z
" transform="scale(0.015625)"/>
       </defs>
       <use xlink:href="#DejaVuSans-32"/>
       <use xlink:href="#DejaVuSans-35" x="63.623047"/>
      </g>
     </g>
    </g>
    <g id="ytick_3">
     <g id="line2d_15">
      <path d="M 67.46112 160.207878 
L 553.74336 160.207878 
" clip-path="url(#pe51a6c5631)" style="fill: none; stroke-dasharray: 2.96,1.28; stroke-dashoffset: 0; stroke: #b0b0b0; stroke-opacity: 0.4; stroke-width: 0.8"/>
     </g>
     <g id="line2d_16">
      <g>
       <use xlink:href="#m4216dcaa9b" x="67.46112" y="160.207878" style="stroke: #000000; stroke-width: 0.8"/>
      </g>
     </g>
     <g id="text_3">
      <!-- 50 -->
      <g transform="translate(47.73612 164.007096) scale(0.1 -0.1)">
       <use xlink:href="#DejaVuSans-35"/>
       <use xlink:href="#DejaVuSans-30" x="63.623047"/>
      </g>
     </g>
    </g>
    <g id="ytick_4">
     <g id="line2d_17">
      <path d="M 67.46112 136.983911 
L 553.74336 136.983911 
" clip-path="url(#pe51a6c5631)" style="fill: none; stroke-dasharray: 2.96,1.28; stroke-dashoffset: 0; stroke: #b0b0b0; stroke-opacity: 0.4; stroke-width: 0.8"/>
     </g>
     <g id="line2d_18">
      <g>
       <use xlink:href="#m4216dcaa9b" x="67.46112" y="136.983911" style="stroke: #000000; stroke-width: 0.8"/>
      </g>
     </g>
     <g id="text_4">
      <!-- 75 -->
      <g transform="translate(47.73612 140.78313) scale(0.1 -0.1)">
       <defs>
        <path id="DejaVuSans-37" d="M 525 4666 
L 3525 4666 
L 3525 4397 
L 1831 0 
L 1172 0 
L 2766 4134 
L 525 4134 
L 525 4666 
z
" transform="scale(0.015625)"/>
       </defs>
       <use xlink:href="#DejaVuSans-37"/>
       <use xlink:href="#DejaVuSans-35" x="63.623047"/>
      </g>
     </g>
    </g>
    <g id="ytick_5">
     <g id="line2d_19">
      <path d="M 67.46112 113.759945 
L 553.74336 113.759945 
" clip-path="url(#pe51a6c5631)" style="fill: none; stroke-dasharray: 2.96,1.28; stroke-dashoffset: 0; stroke: #b0b0b0; stroke-opacity: 0.4; stroke-width: 0.8"/>
     </g>
     <g id="line2d_20">
      <g>
       <use xlink:href="#m4216dcaa9b" x="67.46112" y="113.759945" style="stroke: #000000; stroke-width: 0.8"/>
      </g>
     </g>
     <g id="text_5">
      <!-- 100 -->
      <g transform="translate(41.37362 117.559163) scale(0.1 -0.1)">
       <defs>
        <path id="DejaVuSans-31" d="M 794 531 
L 1825 531 
L 1825 4091 
L 703 3866 
L 703 4441 
L 1819 4666 
L 2450 4666 
L 2450 531 
L 3481 531 
L 3481 0 
L 794 0 
L 794 531 
z
" transform="scale(0.015625)"/>
       </defs>
       <use xlink:href="#DejaVuSans-31"/>
       <use xlink:href="#DejaVuSans-30" x="63.623047"/>
       <use xlink:href="#DejaVuSans-30" x="127.246094"/>
      </g>
     </g>
    </g>
    <g id="ytick_6">
     <g id="line2d_21">
      <path d="M 67.46112 90.535978 
L 553.74336 90.535978 
" clip-path="url(#pe51a6c5631)" style="fill: none; stroke-dasharray: 2.96,1.28; stroke-dashoffset: 0; stroke: #b0b0b0; stroke-opacity: 0.4; stroke-width: 0.8"/>
     </g>
     <g id="line2d_22">
      <g>
       <use xlink:href="#m4216dcaa9b" x="67.46112" y="90.535978" style="stroke: #000000; stroke-width: 0.8"/>
      </g>
     </g>
     <g id="text_6">
      <!-- 125 -->
      <g transform="translate(41.37362 94.335197) scale(0.1 -0.1)">
       <use xlink:href="#DejaVuSans-31"/>
       <use xlink:href="#DejaVuSans-32" x="63.623047"/>
       <use xlink:href="#DejaVuSans-35" x="127.246094"/>
      </g>
     </g>
    </g>
    <g id="ytick_7">
     <g id="line2d_23">
      <path d="M 67.46112 67.312012 
L 553.74336 67.312012 
" clip-path="url(#pe51a6c5631)" style="fill: none; stroke-dasharray: 2.96,1.28; stroke-dashoffset: 0; stroke: #b0b0b0; stroke-opacity: 0.4; stroke-width: 0.8"/>
     </g>
     <g id="line2d_24">
      <g>
       <use xlink:href="#m4216dcaa9b" x="67.46112" y="67.312012" style="stroke: #000000; stroke-width: 0.8"/>
      </g>
     </g>
     <g id="text_7">
      <!-- 150 -->
      <g transform="translate(41.37362 71.111231) scale(0.1 -0.1)">
       <use xlink:href="#DejaVuSans-31"/>
       <use xlink:href="#DejaVuSans-35" x="63.623047"/>
       <use xlink:href="#DejaVuSans-30" x="127.246094"/>
      </g>
     </g>
    </g>
    <g id="text_8">
     <!-- Total time (s) -->
     <g transform="translate(23.775808 169.16996) rotate(-90) scale(0.1 -0.1)">
      <defs>
       <path id="DejaVuSans-54" d="M -19 4666 
L 3928 4666 
L 3928 4134 
L 2272 4134 
L 2272 0 
L 1638 0 
L 1638 4134 
L -19 4134 
L -19 4666 
z
" transform="scale(0.015625)"/>
       <path id="DejaVuSans-6f" d="M 1959 3097 
Q 1497 3097 1228 2736 
Q 959 2375 959 1747 
Q 959 1119 1226 758 
Q 1494 397 1959 397 
Q 2419 397 2687 759 
Q 2956 1122 2956 1747 
Q 2956 2369 2687 2733 
Q 2419 3097 1959 3097 
z
M 1959 3584 
Q 2709 3584 3137 3096 
Q 3566 2609 3566 1747 
Q 3566 888 3137 398 
Q 2709 -91 1959 -91 
Q 1206 -91 779 398 
Q 353 888 353 1747 
Q 353 2609 779 3096 
Q 1206 3584 1959 3584 
z
" transform="scale(0.015625)"/>
       <path id="DejaVuSans-74" d="M 1172 4494 
L 1172 3500 
L 2356 3500 
L 2356 3053 
L 1172 3053 
L 1172 1153 
Q 1172 725 1289 603 
Q 1406 481 1766 481 
L 2356 481 
L 2356 0 
L 1766 0 
Q 1100 0 847 248 
Q 594 497 594 1153 
L 594 3053 
L 172 3053 
L 172 3500 
L 594 3500 
L 594 4494 
L 1172 4494 
z
" transform="scale(0.015625)"/>
       <path id="DejaVuSans-61" d="M 2194 1759 
Q 1497 1759 1228 1600 
Q 959 1441 959 1056 
Q 959 750 1161 570 
Q 1363 391 1709 391 
Q 2188 391 2477 730 
Q 2766 1069 2766 1631 
L 2766 1759 
L 2194 1759 
z
M 3341 1997 
L 3341 0 
L 2766 0 
L 2766 531 
Q 2569 213 2275 61 
Q 1981 -91 1556 -91 
Q 1019 -91 701 211 
Q 384 513 384 1019 
Q 384 1609 779 1909 
Q 1175 2209 1959 2209 
L 2766 2209 
L 2766 2266 
Q 2766 2663 2505 2880 
Q 2244 3097 1772 3097 
Q 1472 3097 1187 3025 
Q 903 2953 641 2809 
L 641 3341 
Q 956 3463 1253 3523 
Q 1550 3584 1831 3584 
Q 2591 3584 2966 3190 
Q 3341 2797 3341 1997 
z
" transform="scale(0.015625)"/>
       <path id="DejaVuSans-6c" d="M 603 4863 
L 1178 4863 
L 1178 0 
L 603 0 
L 603 4863 
z
" transform="scale(0.015625)"/>
       <path id="DejaVuSans-20" transform="scale(0.015625)"/>
       <path id="DejaVuSans-69" d="M 603 3500 
L 1178 3500 
L 1178 0 
L 603 0 
L 603 3500 
z
M 603 4863 
L 1178 4863 
L 1178 4134 
L 603 4134 
L 603 4863 
z
" transform="scale(0.015625)"/>
       <path id="DejaVuSans-6d" d="M 3328 2828 
Q 3544 3216 3844 3400 
Q 4144 3584 4550 3584 
Q 5097 3584 5394 3201 
Q 5691 2819 5691 2113 
L 5691 0 
L 5113 0 
L 5113 2094 
Q 5113 2597 4934 2840 
Q 4756 3084 4391 3084 
Q 3944 3084 3684 2787 
Q 3425 2491 3425 1978 
L 3425 0 
L 2847 0 
L 2847 2094 
Q 2847 2600 2669 2842 
Q 2491 3084 2119 3084 
Q 1678 3084 1418 2786 
Q 1159 2488 1159 1978 
L 1159 0 
L 581 0 
L 581 3500 
L 1159 3500 
L 1159 2956 
Q 1356 3278 1631 3431 
Q 1906 3584 2284 3584 
Q 2666 3584 2933 3390 
Q 3200 3197 3328 2828 
z
" transform="scale(0.015625)"/>
       <path id="DejaVuSans-65" d="M 3597 1894 
L 3597 1613 
L 953 1613 
Q 991 1019 1311 708 
Q 1631 397 2203 397 
Q 2534 397 2845 478 
Q 3156 559 3463 722 
L 3463 178 
Q 3153 47 2828 -22 
Q 2503 -91 2169 -91 
Q 1331 -91 842 396 
Q 353 884 353 1716 
Q 353 2575 817 3079 
Q 1281 3584 2069 3584 
Q 2775 3584 3186 3129 
Q 3597 2675 3597 1894 
z
M 3022 2063 
Q 3016 2534 2758 2815 
Q 2500 3097 2075 3097 
Q 1594 3097 1305 2825 
Q 1016 2553 972 2059 
L 3022 2063 
z
" transform="scale(0.015625)"/>
       <path id="DejaVuSans-28" d="M 1984 4856 
Q 1566 4138 1362 3434 
Q 1159 2731 1159 2009 
Q 1159 1288 1364 580 
Q 1569 -128 1984 -844 
L 1484 -844 
Q 1016 -109 783 600 
Q 550 1309 550 2009 
Q 550 2706 781 3412 
Q 1013 4119 1484 4856 
L 1984 4856 
z
" transform="scale(0.015625)"/>
       <path id="DejaVuSans-73" d="M 2834 3397 
L 2834 2853 
Q 2591 2978 2328 3040 
Q 2066 3103 1784 3103 
Q 1356 3103 1142 2972 
Q 928 2841 928 2578 
Q 928 2378 1081 2264 
Q 1234 2150 1697 2047 
L 1894 2003 
Q 2506 1872 2764 1633 
Q 3022 1394 3022 966 
Q 3022 478 2636 193 
Q 2250 -91 1575 -91 
Q 1294 -91 989 -36 
Q 684 19 347 128 
L 347 722 
Q 666 556 975 473 
Q 1284 391 1588 391 
Q 1994 391 2212 530 
Q 2431 669 2431 922 
Q 2431 1156 2273 1281 
Q 2116 1406 1581 1522 
L 1381 1569 
Q 847 1681 609 1914 
Q 372 2147 372 2553 
Q 372 3047 722 3315 
Q 1072 3584 1716 3584 
Q 2034 3584 2315 3537 
Q 2597 3491 2834 3397 
z
" transform="scale(0.015625)"/>
       <path id="DejaVuSans-29" d="M 513 4856 
L 1013 4856 
Q 1481 4119 1714 3412 
Q 1947 2706 1947 2009 
Q 1947 1309 1714 600 
Q 1481 -109 1013 -844 
L 513 -844 
Q 928 -128 1133 580 
Q 1338 1288 1338 2009 
Q 1338 2731 1133 3434 
Q 928 4138 513 4856 
z
" transform="scale(0.015625)"/>
      </defs>
      <use xlink:href="#DejaVuSans-54"/>
      <use xlink:href="#DejaVuSans-6f" x="44.083984"/>
      <use xlink:href="#DejaVuSans-74" x="105.265625"/>
      <use xlink:href="#DejaVuSans-61" x="144.474609"/>
      <use xlink:href="#DejaVuSans-6c" x="205.753906"/>
      <use xlink:href="#DejaVuSans-20" x="233.537109"/>
      <use xlink:href="#DejaVuSans-74" x="265.324219"/>
      <use xlink:href="#DejaVuSans-69" x="304.533203"/>
      <use xlink:href="#DejaVuSans-6d" x="332.316406"/>
      <use xlink:href="#DejaVuSans-65" x="429.728516"/>
      <use xlink:href="#DejaVuSans-20" x="491.251953"/>
      <use xlink:href="#DejaVuSans-28" x="523.039062"/>
      <use xlink:href="#DejaVuSans-73" x="562.052734"/>
      <use xlink:href="#DejaVuSans-29" x="614.152344"/>
     </g>
     <!-- $\bf{COO\_spr}$ -->
     <g transform="translate(34.97362 160.212929) rotate(-90) scale(0.1 -0.1)">
      <defs>
       <path id="DejaVuSans-Bold-43" d="M 4288 256 
Q 3956 84 3597 -3 
Q 3238 -91 2847 -91 
Q 1681 -91 1000 561 
Q 319 1213 319 2328 
Q 319 3447 1000 4098 
Q 1681 4750 2847 4750 
Q 3238 4750 3597 4662 
Q 3956 4575 4288 4403 
L 4288 3438 
Q 3953 3666 3628 3772 
Q 3303 3878 2944 3878 
Q 2300 3878 1931 3465 
Q 1563 3053 1563 2328 
Q 1563 1606 1931 1193 
Q 2300 781 2944 781 
Q 3303 781 3628 887 
Q 3953 994 4288 1222 
L 4288 256 
z
" transform="scale(0.015625)"/>
       <path id="DejaVuSans-Bold-4f" d="M 2719 3878 
Q 2169 3878 1866 3472 
Q 1563 3066 1563 2328 
Q 1563 1594 1866 1187 
Q 2169 781 2719 781 
Q 3272 781 3575 1187 
Q 3878 1594 3878 2328 
Q 3878 3066 3575 3472 
Q 3272 3878 2719 3878 
z
M 2719 4750 
Q 3844 4750 4481 4106 
Q 5119 3463 5119 2328 
Q 5119 1197 4481 553 
Q 3844 -91 2719 -91 
Q 1597 -91 958 553 
Q 319 1197 319 2328 
Q 319 3463 958 4106 
Q 1597 4750 2719 4750 
z
" transform="scale(0.015625)"/>
       <path id="DejaVuSans-Bold-5f" d="M 3200 -916 
L 3200 -1509 
L 0 -1509 
L 0 -916 
L 3200 -916 
z
" transform="scale(0.015625)"/>
       <path id="DejaVuSans-Bold-73" d="M 3272 3391 
L 3272 2541 
Q 2913 2691 2578 2766 
Q 2244 2841 1947 2841 
Q 1628 2841 1473 2761 
Q 1319 2681 1319 2516 
Q 1319 2381 1436 2309 
Q 1553 2238 1856 2203 
L 2053 2175 
Q 2913 2066 3209 1816 
Q 3506 1566 3506 1031 
Q 3506 472 3093 190 
Q 2681 -91 1863 -91 
Q 1516 -91 1145 -36 
Q 775 19 384 128 
L 384 978 
Q 719 816 1070 734 
Q 1422 653 1784 653 
Q 2113 653 2278 743 
Q 2444 834 2444 1013 
Q 2444 1163 2330 1236 
Q 2216 1309 1875 1350 
L 1678 1375 
Q 931 1469 631 1722 
Q 331 1975 331 2491 
Q 331 3047 712 3315 
Q 1094 3584 1881 3584 
Q 2191 3584 2531 3537 
Q 2872 3491 3272 3391 
z
" transform="scale(0.015625)"/>
       <path id="DejaVuSans-Bold-70" d="M 1656 506 
L 1656 -1331 
L 538 -1331 
L 538 3500 
L 1656 3500 
L 1656 2988 
Q 1888 3294 2169 3439 
Q 2450 3584 2816 3584 
Q 3463 3584 3878 3070 
Q 4294 2556 4294 1747 
Q 4294 938 3878 423 
Q 3463 -91 2816 -91 
Q 2450 -91 2169 54 
Q 1888 200 1656 506 
z
M 2400 2772 
Q 2041 2772 1848 2508 
Q 1656 2244 1656 1747 
Q 1656 1250 1848 986 
Q 2041 722 2400 722 
Q 2759 722 2948 984 
Q 3138 1247 3138 1747 
Q 3138 2247 2948 2509 
Q 2759 2772 2400 2772 
z
" transform="scale(0.015625)"/>
       <path id="DejaVuSans-Bold-72" d="M 3138 2547 
Q 2991 2616 2845 2648 
Q 2700 2681 2553 2681 
Q 2122 2681 1889 2404 
Q 1656 2128 1656 1613 
L 1656 0 
L 538 0 
L 538 3500 
L 1656 3500 
L 1656 2925 
Q 1872 3269 2151 3426 
Q 2431 3584 2822 3584 
Q 2878 3584 2943 3579 
Q 3009 3575 3134 3559 
L 3138 2547 
z
" transform="scale(0.015625)"/>
      </defs>
      <use xlink:href="#DejaVuSans-Bold-43" transform="translate(0 0.78125)"/>
      <use xlink:href="#DejaVuSans-Bold-4f" transform="translate(73.388672 0.78125)"/>
      <use xlink:href="#DejaVuSans-Bold-4f" transform="translate(158.398438 0.78125)"/>
      <use xlink:href="#DejaVuSans-Bold-5f" transform="translate(243.408203 0.78125)"/>
      <use xlink:href="#DejaVuSans-Bold-73" transform="translate(293.408203 0.78125)"/>
      <use xlink:href="#DejaVuSans-Bold-70" transform="translate(352.929688 0.78125)"/>
      <use xlink:href="#DejaVuSans-Bold-72" transform="translate(424.511719 0.78125)"/>
     </g>
    </g>
   </g>
   <g id="line2d_25">
    <path d="M 67.46112 160.758936 
L 553.74336 160.758936 
" clip-path="url(#pe51a6c5631)" style="fill: none; stroke-dasharray: 3.7,1.6; stroke-dashoffset: 0; stroke: #000000"/>
   </g>
   <g id="patch_18">
    <path d="M 67.46112 206.65581 
L 67.46112 66.370048 
" style="fill: none; stroke: #000000; stroke-width: 0.8; stroke-linejoin: miter; stroke-linecap: square"/>
   </g>
   <g id="patch_19">
    <path d="M 553.74336 206.65581 
L 553.74336 66.370048 
" style="fill: none; stroke: #000000; stroke-width: 0.8; stroke-linejoin: miter; stroke-linecap: square"/>
   </g>
   <g id="patch_20">
    <path d="M 67.46112 206.65581 
L 553.74336 206.65581 
" style="fill: none; stroke: #000000; stroke-width: 0.8; stroke-linejoin: miter; stroke-linecap: square"/>
   </g>
   <g id="patch_21">
    <path d="M 67.46112 66.370048 
L 553.74336 66.370048 
" style="fill: none; stroke: #000000; stroke-width: 0.8; stroke-linejoin: miter; stroke-linecap: square"/>
   </g>
  </g>
  <g id="axes_2">
   <g id="patch_22">
    <path d="M 67.46112 364.059781 
L 553.74336 364.059781 
L 553.74336 223.774018 
L 67.46112 223.774018 
z
" style="fill: #ffffff"/>
   </g>
   <g id="patch_23">
    <path d="M 89.564858 364.059781 
L 105.353243 364.059781 
L 105.353243 311.760152 
L 89.564858 311.760152 
z
" clip-path="url(#pe0cb3899d3)" style="fill: #1f77b4"/>
   </g>
   <g id="patch_24">
    <path d="M 105.353243 364.059781 
L 121.141627 364.059781 
L 121.141627 296.993703 
L 105.353243 296.993703 
z
" clip-path="url(#pe0cb3899d3)" style="fill: #ff7f0e"/>
   </g>
   <g id="patch_25">
    <path d="M 121.141627 364.059781 
L 136.930011 364.059781 
L 136.930011 299.883322 
L 121.141627 299.883322 
z
" clip-path="url(#pe0cb3899d3)" style="fill: #2ca02c"/>
   </g>
   <g id="patch_26">
    <path d="M 136.930011 364.059781 
L 152.718396 364.059781 
L 152.718396 276.172489 
L 136.930011 276.172489 
z
" clip-path="url(#pe0cb3899d3)" style="fill: #d62728"/>
   </g>
   <g id="patch_27">
    <path d="M 152.718396 364.059781 
L 168.50678 364.059781 
L 168.50678 264.521118 
L 152.718396 264.521118 
z
" clip-path="url(#pe0cb3899d3)" style="fill: #9467bd"/>
   </g>
   <g id="patch_28">
    <path d="M 196.136453 364.059781 
L 211.924837 364.059781 
L 211.924837 302.963563 
L 196.136453 302.963563 
z
" clip-path="url(#pe0cb3899d3)" style="fill: #ff7f0e"/>
   </g>
   <g id="patch_29">
    <path d="M 211.924837 364.059781 
L 227.713222 364.059781 
L 227.713222 305.249173 
L 211.924837 305.249173 
z
" clip-path="url(#pe0cb3899d3)" style="fill: #2ca02c"/>
   </g>
   <g id="patch_30">
    <path d="M 227.713222 364.059781 
L 243.501606 364.059781 
L 243.501606 279.155654 
L 227.713222 279.155654 
z
" clip-path="url(#pe0cb3899d3)" style="fill: #d62728"/>
   </g>
   <g id="patch_31">
    <path d="M 243.501606 364.059781 
L 259.289991 364.059781 
L 259.289991 262.909281 
L 243.501606 262.909281 
z
" clip-path="url(#pe0cb3899d3)" style="fill: #9467bd"/>
   </g>
   <g id="patch_32">
    <path d="M 302.708048 364.059781 
L 318.496432 364.059781 
L 318.496432 312.952563 
L 302.708048 312.952563 
z
" clip-path="url(#pe0cb3899d3)" style="fill: #2ca02c"/>
   </g>
   <g id="patch_33">
    <path d="M 318.496432 364.059781 
L 334.284817 364.059781 
L 334.284817 297.077403 
L 318.496432 297.077403 
z
" clip-path="url(#pe0cb3899d3)" style="fill: #d62728"/>
   </g>
   <g id="patch_34">
    <path d="M 334.284817 364.059781 
L 350.073201 364.059781 
L 350.073201 290.844833 
L 334.284817 290.844833 
z
" clip-path="url(#pe0cb3899d3)" style="fill: #9467bd"/>
   </g>
   <g id="patch_35">
    <path d="M 409.279643 364.059781 
L 425.068027 364.059781 
L 425.068027 314.434995 
L 409.279643 314.434995 
z
" clip-path="url(#pe0cb3899d3)" style="fill: #d62728"/>
   </g>
   <g id="patch_36">
    <path d="M 425.068027 364.059781 
L 440.856411 364.059781 
L 440.856411 309.162597 
L 425.068027 309.162597 
z
" clip-path="url(#pe0cb3899d3)" style="fill: #9467bd"/>
   </g>
   <g id="patch_37">
    <path d="M 515.851237 364.059781 
L 531.639622 364.059781 
L 531.639622 279.514139 
L 515.851237 279.514139 
z
" clip-path="url(#pe0cb3899d3)" style="fill: #9467bd"/>
   </g>
   <g id="matplotlib.axis_3">
    <g id="xtick_6">
     <g id="line2d_26">
      <path d="M 129.035819 364.059781 
L 129.035819 223.774018 
" clip-path="url(#pe0cb3899d3)" style="fill: none; stroke-dasharray: 2.96,1.28; stroke-dashoffset: 0; stroke: #b0b0b0; stroke-opacity: 0.4; stroke-width: 0.8"/>
     </g>
     <g id="line2d_27">
      <g>
       <use xlink:href="#md97fba16b8" x="129.035819" y="364.059781" style="stroke: #000000; stroke-width: 0.8"/>
      </g>
     </g>
    </g>
    <g id="xtick_7">
     <g id="line2d_28">
      <path d="M 227.713222 364.059781 
L 227.713222 223.774018 
" clip-path="url(#pe0cb3899d3)" style="fill: none; stroke-dasharray: 2.96,1.28; stroke-dashoffset: 0; stroke: #b0b0b0; stroke-opacity: 0.4; stroke-width: 0.8"/>
     </g>
     <g id="line2d_29">
      <g>
       <use xlink:href="#md97fba16b8" x="227.713222" y="364.059781" style="stroke: #000000; stroke-width: 0.8"/>
      </g>
     </g>
    </g>
    <g id="xtick_8">
     <g id="line2d_30">
      <path d="M 326.390624 364.059781 
L 326.390624 223.774018 
" clip-path="url(#pe0cb3899d3)" style="fill: none; stroke-dasharray: 2.96,1.28; stroke-dashoffset: 0; stroke: #b0b0b0; stroke-opacity: 0.4; stroke-width: 0.8"/>
     </g>
     <g id="line2d_31">
      <g>
       <use xlink:href="#md97fba16b8" x="326.390624" y="364.059781" style="stroke: #000000; stroke-width: 0.8"/>
      </g>
     </g>
    </g>
    <g id="xtick_9">
     <g id="line2d_32">
      <path d="M 425.068027 364.059781 
L 425.068027 223.774018 
" clip-path="url(#pe0cb3899d3)" style="fill: none; stroke-dasharray: 2.96,1.28; stroke-dashoffset: 0; stroke: #b0b0b0; stroke-opacity: 0.4; stroke-width: 0.8"/>
     </g>
     <g id="line2d_33">
      <g>
       <use xlink:href="#md97fba16b8" x="425.068027" y="364.059781" style="stroke: #000000; stroke-width: 0.8"/>
      </g>
     </g>
    </g>
    <g id="xtick_10">
     <g id="line2d_34">
      <path d="M 523.74543 364.059781 
L 523.74543 223.774018 
" clip-path="url(#pe0cb3899d3)" style="fill: none; stroke-dasharray: 2.96,1.28; stroke-dashoffset: 0; stroke: #b0b0b0; stroke-opacity: 0.4; stroke-width: 0.8"/>
     </g>
     <g id="line2d_35">
      <g>
       <use xlink:href="#md97fba16b8" x="523.74543" y="364.059781" style="stroke: #000000; stroke-width: 0.8"/>
      </g>
     </g>
    </g>
   </g>
   <g id="matplotlib.axis_4">
    <g id="ytick_8">
     <g id="line2d_36">
      <path d="M 67.46112 364.059781 
L 553.74336 364.059781 
" clip-path="url(#pe0cb3899d3)" style="fill: none; stroke-dasharray: 2.96,1.28; stroke-dashoffset: 0; stroke: #b0b0b0; stroke-opacity: 0.4; stroke-width: 0.8"/>
     </g>
     <g id="line2d_37">
      <g>
       <use xlink:href="#m4216dcaa9b" x="67.46112" y="364.059781" style="stroke: #000000; stroke-width: 0.8"/>
      </g>
     </g>
     <g id="text_9">
      <!-- 0 -->
      <g transform="translate(54.09862 367.858999) scale(0.1 -0.1)">
       <use xlink:href="#DejaVuSans-30"/>
      </g>
     </g>
    </g>
    <g id="ytick_9">
     <g id="line2d_38">
      <path d="M 67.46112 340.835814 
L 553.74336 340.835814 
" clip-path="url(#pe0cb3899d3)" style="fill: none; stroke-dasharray: 2.96,1.28; stroke-dashoffset: 0; stroke: #b0b0b0; stroke-opacity: 0.4; stroke-width: 0.8"/>
     </g>
     <g id="line2d_39">
      <g>
       <use xlink:href="#m4216dcaa9b" x="67.46112" y="340.835814" style="stroke: #000000; stroke-width: 0.8"/>
      </g>
     </g>
     <g id="text_10">
      <!-- 25 -->
      <g transform="translate(47.73612 344.635033) scale(0.1 -0.1)">
       <use xlink:href="#DejaVuSans-32"/>
       <use xlink:href="#DejaVuSans-35" x="63.623047"/>
      </g>
     </g>
    </g>
    <g id="ytick_10">
     <g id="line2d_40">
      <path d="M 67.46112 317.611848 
L 553.74336 317.611848 
" clip-path="url(#pe0cb3899d3)" style="fill: none; stroke-dasharray: 2.96,1.28; stroke-dashoffset: 0; stroke: #b0b0b0; stroke-opacity: 0.4; stroke-width: 0.8"/>
     </g>
     <g id="line2d_41">
      <g>
       <use xlink:href="#m4216dcaa9b" x="67.46112" y="317.611848" style="stroke: #000000; stroke-width: 0.8"/>
      </g>
     </g>
     <g id="text_11">
      <!-- 50 -->
      <g transform="translate(47.73612 321.411067) scale(0.1 -0.1)">
       <use xlink:href="#DejaVuSans-35"/>
       <use xlink:href="#DejaVuSans-30" x="63.623047"/>
      </g>
     </g>
    </g>
    <g id="ytick_11">
     <g id="line2d_42">
      <path d="M 67.46112 294.387881 
L 553.74336 294.387881 
" clip-path="url(#pe0cb3899d3)" style="fill: none; stroke-dasharray: 2.96,1.28; stroke-dashoffset: 0; stroke: #b0b0b0; stroke-opacity: 0.4; stroke-width: 0.8"/>
     </g>
     <g id="line2d_43">
      <g>
       <use xlink:href="#m4216dcaa9b" x="67.46112" y="294.387881" style="stroke: #000000; stroke-width: 0.8"/>
      </g>
     </g>
     <g id="text_12">
      <!-- 75 -->
      <g transform="translate(47.73612 298.1871) scale(0.1 -0.1)">
       <use xlink:href="#DejaVuSans-37"/>
       <use xlink:href="#DejaVuSans-35" x="63.623047"/>
      </g>
     </g>
    </g>
    <g id="ytick_12">
     <g id="line2d_44">
      <path d="M 67.46112 271.163915 
L 553.74336 271.163915 
" clip-path="url(#pe0cb3899d3)" style="fill: none; stroke-dasharray: 2.96,1.28; stroke-dashoffset: 0; stroke: #b0b0b0; stroke-opacity: 0.4; stroke-width: 0.8"/>
     </g>
     <g id="line2d_45">
      <g>
       <use xlink:href="#m4216dcaa9b" x="67.46112" y="271.163915" style="stroke: #000000; stroke-width: 0.8"/>
      </g>
     </g>
     <g id="text_13">
      <!-- 100 -->
      <g transform="translate(41.37362 274.963134) scale(0.1 -0.1)">
       <use xlink:href="#DejaVuSans-31"/>
       <use xlink:href="#DejaVuSans-30" x="63.623047"/>
       <use xlink:href="#DejaVuSans-30" x="127.246094"/>
      </g>
     </g>
    </g>
    <g id="ytick_13">
     <g id="line2d_46">
      <path d="M 67.46112 247.939949 
L 553.74336 247.939949 
" clip-path="url(#pe0cb3899d3)" style="fill: none; stroke-dasharray: 2.96,1.28; stroke-dashoffset: 0; stroke: #b0b0b0; stroke-opacity: 0.4; stroke-width: 0.8"/>
     </g>
     <g id="line2d_47">
      <g>
       <use xlink:href="#m4216dcaa9b" x="67.46112" y="247.939949" style="stroke: #000000; stroke-width: 0.8"/>
      </g>
     </g>
     <g id="text_14">
      <!-- 125 -->
      <g transform="translate(41.37362 251.739167) scale(0.1 -0.1)">
       <use xlink:href="#DejaVuSans-31"/>
       <use xlink:href="#DejaVuSans-32" x="63.623047"/>
       <use xlink:href="#DejaVuSans-35" x="127.246094"/>
      </g>
     </g>
    </g>
    <g id="ytick_14">
     <g id="line2d_48">
      <path d="M 67.46112 224.715982 
L 553.74336 224.715982 
" clip-path="url(#pe0cb3899d3)" style="fill: none; stroke-dasharray: 2.96,1.28; stroke-dashoffset: 0; stroke: #b0b0b0; stroke-opacity: 0.4; stroke-width: 0.8"/>
     </g>
     <g id="line2d_49">
      <g>
       <use xlink:href="#m4216dcaa9b" x="67.46112" y="224.715982" style="stroke: #000000; stroke-width: 0.8"/>
      </g>
     </g>
     <g id="text_15">
      <!-- 150 -->
      <g transform="translate(41.37362 228.515201) scale(0.1 -0.1)">
       <use xlink:href="#DejaVuSans-31"/>
       <use xlink:href="#DejaVuSans-35" x="63.623047"/>
       <use xlink:href="#DejaVuSans-30" x="127.246094"/>
      </g>
     </g>
    </g>
    <g id="text_16">
     <!-- Total time (s) -->
     <g transform="translate(23.775808 326.573931) rotate(-90) scale(0.1 -0.1)">
      <use xlink:href="#DejaVuSans-54"/>
      <use xlink:href="#DejaVuSans-6f" x="44.083984"/>
      <use xlink:href="#DejaVuSans-74" x="105.265625"/>
      <use xlink:href="#DejaVuSans-61" x="144.474609"/>
      <use xlink:href="#DejaVuSans-6c" x="205.753906"/>
      <use xlink:href="#DejaVuSans-20" x="233.537109"/>
      <use xlink:href="#DejaVuSans-74" x="265.324219"/>
      <use xlink:href="#DejaVuSans-69" x="304.533203"/>
      <use xlink:href="#DejaVuSans-6d" x="332.316406"/>
      <use xlink:href="#DejaVuSans-65" x="429.728516"/>
      <use xlink:href="#DejaVuSans-20" x="491.251953"/>
      <use xlink:href="#DejaVuSans-28" x="523.039062"/>
      <use xlink:href="#DejaVuSans-73" x="562.052734"/>
      <use xlink:href="#DejaVuSans-29" x="614.152344"/>
     </g>
     <!-- $\bf{COO\_apr}$ -->
     <g transform="translate(34.97362 318.016899) rotate(-90) scale(0.1 -0.1)">
      <defs>
       <path id="DejaVuSans-Bold-61" d="M 2106 1575 
Q 1756 1575 1579 1456 
Q 1403 1338 1403 1106 
Q 1403 894 1545 773 
Q 1688 653 1941 653 
Q 2256 653 2472 879 
Q 2688 1106 2688 1447 
L 2688 1575 
L 2106 1575 
z
M 3816 1997 
L 3816 0 
L 2688 0 
L 2688 519 
Q 2463 200 2181 54 
Q 1900 -91 1497 -91 
Q 953 -91 614 226 
Q 275 544 275 1050 
Q 275 1666 698 1953 
Q 1122 2241 2028 2241 
L 2688 2241 
L 2688 2328 
Q 2688 2594 2478 2717 
Q 2269 2841 1825 2841 
Q 1466 2841 1156 2769 
Q 847 2697 581 2553 
L 581 3406 
Q 941 3494 1303 3539 
Q 1666 3584 2028 3584 
Q 2975 3584 3395 3211 
Q 3816 2838 3816 1997 
z
" transform="scale(0.015625)"/>
      </defs>
      <use xlink:href="#DejaVuSans-Bold-43" transform="translate(0 0.78125)"/>
      <use xlink:href="#DejaVuSans-Bold-4f" transform="translate(73.388672 0.78125)"/>
      <use xlink:href="#DejaVuSans-Bold-4f" transform="translate(158.398438 0.78125)"/>
      <use xlink:href="#DejaVuSans-Bold-5f" transform="translate(243.408203 0.78125)"/>
      <use xlink:href="#DejaVuSans-Bold-61" transform="translate(293.408203 0.78125)"/>
      <use xlink:href="#DejaVuSans-Bold-70" transform="translate(360.888672 0.78125)"/>
      <use xlink:href="#DejaVuSans-Bold-72" transform="translate(432.470703 0.78125)"/>
     </g>
    </g>
   </g>
   <g id="line2d_50">
    <path d="M 67.46112 318.162906 
L 553.74336 318.162906 
" clip-path="url(#pe0cb3899d3)" style="fill: none; stroke-dasharray: 3.7,1.6; stroke-dashoffset: 0; stroke: #000000"/>
   </g>
   <g id="patch_38">
    <path d="M 67.46112 364.059781 
L 67.46112 223.774018 
" style="fill: none; stroke: #000000; stroke-width: 0.8; stroke-linejoin: miter; stroke-linecap: square"/>
   </g>
   <g id="patch_39">
    <path d="M 553.74336 364.059781 
L 553.74336 223.774018 
" style="fill: none; stroke: #000000; stroke-width: 0.8; stroke-linejoin: miter; stroke-linecap: square"/>
   </g>
   <g id="patch_40">
    <path d="M 67.46112 364.059781 
L 553.74336 364.059781 
" style="fill: none; stroke: #000000; stroke-width: 0.8; stroke-linejoin: miter; stroke-linecap: square"/>
   </g>
   <g id="patch_41">
    <path d="M 67.46112 223.774018 
L 553.74336 223.774018 
" style="fill: none; stroke: #000000; stroke-width: 0.8; stroke-linejoin: miter; stroke-linecap: square"/>
   </g>
  </g>
  <g id="axes_3">
   <g id="patch_42">
    <path d="M 67.46112 521.463751 
L 553.74336 521.463751 
L 553.74336 381.177989 
L 67.46112 381.177989 
z
" style="fill: #ffffff"/>
   </g>
   <g id="patch_43">
    <path d="M 89.564858 521.463751 
L 105.353243 521.463751 
L 105.353243 473.855828 
L 89.564858 473.855828 
z
" clip-path="url(#pe99cf205f2)" style="fill: #1f77b4"/>
   </g>
   <g id="patch_44">
    <path d="M 105.353243 521.463751 
L 121.141627 521.463751 
L 121.141627 432.056961 
L 105.353243 432.056961 
z
" clip-path="url(#pe99cf205f2)" style="fill: #ff7f0e"/>
   </g>
   <g id="patch_45">
    <path d="M 121.141627 521.463751 
L 136.930011 521.463751 
L 136.930011 439.949951 
L 121.141627 439.949951 
z
" clip-path="url(#pe99cf205f2)" style="fill: #2ca02c"/>
   </g>
   <g id="patch_46">
    <path d="M 136.930011 521.463751 
L 152.718396 521.463751 
L 152.718396 435.944839 
L 136.930011 435.944839 
z
" clip-path="url(#pe99cf205f2)" style="fill: #d62728"/>
   </g>
   <g id="patch_47">
    <path d="M 152.718396 521.463751 
L 168.50678 521.463751 
L 168.50678 385.822782 
L 152.718396 385.822782 
z
" clip-path="url(#pe99cf205f2)" style="fill: #9467bd"/>
   </g>
   <g id="patch_48">
    <path d="M 196.136453 521.463751 
L 211.924837 521.463751 
L 211.924837 460.151086 
L 196.136453 460.151086 
z
" clip-path="url(#pe99cf205f2)" style="fill: #ff7f0e"/>
   </g>
   <g id="patch_49">
    <path d="M 211.924837 521.463751 
L 227.713222 521.463751 
L 227.713222 442.751876 
L 211.924837 442.751876 
z
" clip-path="url(#pe99cf205f2)" style="fill: #2ca02c"/>
   </g>
   <g id="patch_50">
    <path d="M 227.713222 521.463751 
L 243.501606 521.463751 
L 243.501606 421.598745 
L 227.713222 421.598745 
z
" clip-path="url(#pe99cf205f2)" style="fill: #d62728"/>
   </g>
   <g id="patch_51">
    <path d="M 243.501606 521.463751 
L 259.289991 521.463751 
L 259.289991 430.097695 
L 243.501606 430.097695 
z
" clip-path="url(#pe99cf205f2)" style="fill: #9467bd"/>
   </g>
   <g id="patch_52">
    <path d="M 302.708048 521.463751 
L 318.496432 521.463751 
L 318.496432 473.211873 
L 302.708048 473.211873 
z
" clip-path="url(#pe99cf205f2)" style="fill: #2ca02c"/>
   </g>
   <g id="patch_53">
    <path d="M 318.496432 521.463751 
L 334.284817 521.463751 
L 334.284817 457.420134 
L 318.496432 457.420134 
z
" clip-path="url(#pe99cf205f2)" style="fill: #d62728"/>
   </g>
   <g id="patch_54">
    <path d="M 334.284817 521.463751 
L 350.073201 521.463751 
L 350.073201 454.737858 
L 334.284817 454.737858 
z
" clip-path="url(#pe99cf205f2)" style="fill: #9467bd"/>
   </g>
   <g id="patch_55">
    <path d="M 409.279643 521.463751 
L 425.068027 521.463751 
L 425.068027 475.566877 
L 409.279643 475.566877 
z
" clip-path="url(#pe99cf205f2)" style="fill: #d62728"/>
   </g>
   <g id="patch_56">
    <path d="M 425.068027 521.463751 
L 440.856411 521.463751 
L 440.856411 470.095124 
L 425.068027 470.095124 
z
" clip-path="url(#pe99cf205f2)" style="fill: #9467bd"/>
   </g>
   <g id="patch_57">
    <path d="M 515.851237 521.463751 
L 531.639622 521.463751 
L 531.639622 438.564781 
L 515.851237 438.564781 
z
" clip-path="url(#pe99cf205f2)" style="fill: #9467bd"/>
   </g>
   <g id="matplotlib.axis_5">
    <g id="xtick_11">
     <g id="line2d_51">
      <path d="M 129.035819 521.463751 
L 129.035819 381.177989 
" clip-path="url(#pe99cf205f2)" style="fill: none; stroke-dasharray: 2.96,1.28; stroke-dashoffset: 0; stroke: #b0b0b0; stroke-opacity: 0.4; stroke-width: 0.8"/>
     </g>
     <g id="line2d_52">
      <g>
       <use xlink:href="#md97fba16b8" x="129.035819" y="521.463751" style="stroke: #000000; stroke-width: 0.8"/>
      </g>
     </g>
     <g id="text_17">
      <!-- 4 -->
      <g transform="translate(125.854569 536.062189) scale(0.1 -0.1)">
       <defs>
        <path id="DejaVuSans-34" d="M 2419 4116 
L 825 1625 
L 2419 1625 
L 2419 4116 
z
M 2253 4666 
L 3047 4666 
L 3047 1625 
L 3713 1625 
L 3713 1100 
L 3047 1100 
L 3047 0 
L 2419 0 
L 2419 1100 
L 313 1100 
L 313 1709 
L 2253 4666 
z
" transform="scale(0.015625)"/>
       </defs>
       <use xlink:href="#DejaVuSans-34"/>
      </g>
     </g>
    </g>
    <g id="xtick_12">
     <g id="line2d_53">
      <path d="M 227.713222 521.463751 
L 227.713222 381.177989 
" clip-path="url(#pe99cf205f2)" style="fill: none; stroke-dasharray: 2.96,1.28; stroke-dashoffset: 0; stroke: #b0b0b0; stroke-opacity: 0.4; stroke-width: 0.8"/>
     </g>
     <g id="line2d_54">
      <g>
       <use xlink:href="#md97fba16b8" x="227.713222" y="521.463751" style="stroke: #000000; stroke-width: 0.8"/>
      </g>
     </g>
     <g id="text_18">
      <!-- 8 -->
      <g transform="translate(224.531972 536.062189) scale(0.1 -0.1)">
       <defs>
        <path id="DejaVuSans-38" d="M 2034 2216 
Q 1584 2216 1326 1975 
Q 1069 1734 1069 1313 
Q 1069 891 1326 650 
Q 1584 409 2034 409 
Q 2484 409 2743 651 
Q 3003 894 3003 1313 
Q 3003 1734 2745 1975 
Q 2488 2216 2034 2216 
z
M 1403 2484 
Q 997 2584 770 2862 
Q 544 3141 544 3541 
Q 544 4100 942 4425 
Q 1341 4750 2034 4750 
Q 2731 4750 3128 4425 
Q 3525 4100 3525 3541 
Q 3525 3141 3298 2862 
Q 3072 2584 2669 2484 
Q 3125 2378 3379 2068 
Q 3634 1759 3634 1313 
Q 3634 634 3220 271 
Q 2806 -91 2034 -91 
Q 1263 -91 848 271 
Q 434 634 434 1313 
Q 434 1759 690 2068 
Q 947 2378 1403 2484 
z
M 1172 3481 
Q 1172 3119 1398 2916 
Q 1625 2713 2034 2713 
Q 2441 2713 2670 2916 
Q 2900 3119 2900 3481 
Q 2900 3844 2670 4047 
Q 2441 4250 2034 4250 
Q 1625 4250 1398 4047 
Q 1172 3844 1172 3481 
z
" transform="scale(0.015625)"/>
       </defs>
       <use xlink:href="#DejaVuSans-38"/>
      </g>
     </g>
    </g>
    <g id="xtick_13">
     <g id="line2d_55">
      <path d="M 326.390624 521.463751 
L 326.390624 381.177989 
" clip-path="url(#pe99cf205f2)" style="fill: none; stroke-dasharray: 2.96,1.28; stroke-dashoffset: 0; stroke: #b0b0b0; stroke-opacity: 0.4; stroke-width: 0.8"/>
     </g>
     <g id="line2d_56">
      <g>
       <use xlink:href="#md97fba16b8" x="326.390624" y="521.463751" style="stroke: #000000; stroke-width: 0.8"/>
      </g>
     </g>
     <g id="text_19">
      <!-- 16 -->
      <g transform="translate(320.028124 536.062189) scale(0.1 -0.1)">
       <defs>
        <path id="DejaVuSans-36" d="M 2113 2584 
Q 1688 2584 1439 2293 
Q 1191 2003 1191 1497 
Q 1191 994 1439 701 
Q 1688 409 2113 409 
Q 2538 409 2786 701 
Q 3034 994 3034 1497 
Q 3034 2003 2786 2293 
Q 2538 2584 2113 2584 
z
M 3366 4563 
L 3366 3988 
Q 3128 4100 2886 4159 
Q 2644 4219 2406 4219 
Q 1781 4219 1451 3797 
Q 1122 3375 1075 2522 
Q 1259 2794 1537 2939 
Q 1816 3084 2150 3084 
Q 2853 3084 3261 2657 
Q 3669 2231 3669 1497 
Q 3669 778 3244 343 
Q 2819 -91 2113 -91 
Q 1303 -91 875 529 
Q 447 1150 447 2328 
Q 447 3434 972 4092 
Q 1497 4750 2381 4750 
Q 2619 4750 2861 4703 
Q 3103 4656 3366 4563 
z
" transform="scale(0.015625)"/>
       </defs>
       <use xlink:href="#DejaVuSans-31"/>
       <use xlink:href="#DejaVuSans-36" x="63.623047"/>
      </g>
     </g>
    </g>
    <g id="xtick_14">
     <g id="line2d_57">
      <path d="M 425.068027 521.463751 
L 425.068027 381.177989 
" clip-path="url(#pe99cf205f2)" style="fill: none; stroke-dasharray: 2.96,1.28; stroke-dashoffset: 0; stroke: #b0b0b0; stroke-opacity: 0.4; stroke-width: 0.8"/>
     </g>
     <g id="line2d_58">
      <g>
       <use xlink:href="#md97fba16b8" x="425.068027" y="521.463751" style="stroke: #000000; stroke-width: 0.8"/>
      </g>
     </g>
     <g id="text_20">
      <!-- 32 -->
      <g transform="translate(418.705527 536.062189) scale(0.1 -0.1)">
       <defs>
        <path id="DejaVuSans-33" d="M 2597 2516 
Q 3050 2419 3304 2112 
Q 3559 1806 3559 1356 
Q 3559 666 3084 287 
Q 2609 -91 1734 -91 
Q 1441 -91 1130 -33 
Q 819 25 488 141 
L 488 750 
Q 750 597 1062 519 
Q 1375 441 1716 441 
Q 2309 441 2620 675 
Q 2931 909 2931 1356 
Q 2931 1769 2642 2001 
Q 2353 2234 1838 2234 
L 1294 2234 
L 1294 2753 
L 1863 2753 
Q 2328 2753 2575 2939 
Q 2822 3125 2822 3475 
Q 2822 3834 2567 4026 
Q 2313 4219 1838 4219 
Q 1578 4219 1281 4162 
Q 984 4106 628 3988 
L 628 4550 
Q 988 4650 1302 4700 
Q 1616 4750 1894 4750 
Q 2613 4750 3031 4423 
Q 3450 4097 3450 3541 
Q 3450 3153 3228 2886 
Q 3006 2619 2597 2516 
z
" transform="scale(0.015625)"/>
       </defs>
       <use xlink:href="#DejaVuSans-33"/>
       <use xlink:href="#DejaVuSans-32" x="63.623047"/>
      </g>
     </g>
    </g>
    <g id="xtick_15">
     <g id="line2d_59">
      <path d="M 523.74543 521.463751 
L 523.74543 381.177989 
" clip-path="url(#pe99cf205f2)" style="fill: none; stroke-dasharray: 2.96,1.28; stroke-dashoffset: 0; stroke: #b0b0b0; stroke-opacity: 0.4; stroke-width: 0.8"/>
     </g>
     <g id="line2d_60">
      <g>
       <use xlink:href="#md97fba16b8" x="523.74543" y="521.463751" style="stroke: #000000; stroke-width: 0.8"/>
      </g>
     </g>
     <g id="text_21">
      <!-- 64 -->
      <g transform="translate(517.38293 536.062189) scale(0.1 -0.1)">
       <use xlink:href="#DejaVuSans-36"/>
       <use xlink:href="#DejaVuSans-34" x="63.623047"/>
      </g>
     </g>
    </g>
    <g id="text_22">
     <!-- Number of scattered nodes -->
     <g transform="translate(242.237396 549.740314) scale(0.1 -0.1)">
      <defs>
       <path id="DejaVuSans-4e" d="M 628 4666 
L 1478 4666 
L 3547 763 
L 3547 4666 
L 4159 4666 
L 4159 0 
L 3309 0 
L 1241 3903 
L 1241 0 
L 628 0 
L 628 4666 
z
" transform="scale(0.015625)"/>
       <path id="DejaVuSans-75" d="M 544 1381 
L 544 3500 
L 1119 3500 
L 1119 1403 
Q 1119 906 1312 657 
Q 1506 409 1894 409 
Q 2359 409 2629 706 
Q 2900 1003 2900 1516 
L 2900 3500 
L 3475 3500 
L 3475 0 
L 2900 0 
L 2900 538 
Q 2691 219 2414 64 
Q 2138 -91 1772 -91 
Q 1169 -91 856 284 
Q 544 659 544 1381 
z
M 1991 3584 
L 1991 3584 
z
" transform="scale(0.015625)"/>
       <path id="DejaVuSans-62" d="M 3116 1747 
Q 3116 2381 2855 2742 
Q 2594 3103 2138 3103 
Q 1681 3103 1420 2742 
Q 1159 2381 1159 1747 
Q 1159 1113 1420 752 
Q 1681 391 2138 391 
Q 2594 391 2855 752 
Q 3116 1113 3116 1747 
z
M 1159 2969 
Q 1341 3281 1617 3432 
Q 1894 3584 2278 3584 
Q 2916 3584 3314 3078 
Q 3713 2572 3713 1747 
Q 3713 922 3314 415 
Q 2916 -91 2278 -91 
Q 1894 -91 1617 61 
Q 1341 213 1159 525 
L 1159 0 
L 581 0 
L 581 4863 
L 1159 4863 
L 1159 2969 
z
" transform="scale(0.015625)"/>
       <path id="DejaVuSans-72" d="M 2631 2963 
Q 2534 3019 2420 3045 
Q 2306 3072 2169 3072 
Q 1681 3072 1420 2755 
Q 1159 2438 1159 1844 
L 1159 0 
L 581 0 
L 581 3500 
L 1159 3500 
L 1159 2956 
Q 1341 3275 1631 3429 
Q 1922 3584 2338 3584 
Q 2397 3584 2469 3576 
Q 2541 3569 2628 3553 
L 2631 2963 
z
" transform="scale(0.015625)"/>
       <path id="DejaVuSans-66" d="M 2375 4863 
L 2375 4384 
L 1825 4384 
Q 1516 4384 1395 4259 
Q 1275 4134 1275 3809 
L 1275 3500 
L 2222 3500 
L 2222 3053 
L 1275 3053 
L 1275 0 
L 697 0 
L 697 3053 
L 147 3053 
L 147 3500 
L 697 3500 
L 697 3744 
Q 697 4328 969 4595 
Q 1241 4863 1831 4863 
L 2375 4863 
z
" transform="scale(0.015625)"/>
       <path id="DejaVuSans-63" d="M 3122 3366 
L 3122 2828 
Q 2878 2963 2633 3030 
Q 2388 3097 2138 3097 
Q 1578 3097 1268 2742 
Q 959 2388 959 1747 
Q 959 1106 1268 751 
Q 1578 397 2138 397 
Q 2388 397 2633 464 
Q 2878 531 3122 666 
L 3122 134 
Q 2881 22 2623 -34 
Q 2366 -91 2075 -91 
Q 1284 -91 818 406 
Q 353 903 353 1747 
Q 353 2603 823 3093 
Q 1294 3584 2113 3584 
Q 2378 3584 2631 3529 
Q 2884 3475 3122 3366 
z
" transform="scale(0.015625)"/>
       <path id="DejaVuSans-64" d="M 2906 2969 
L 2906 4863 
L 3481 4863 
L 3481 0 
L 2906 0 
L 2906 525 
Q 2725 213 2448 61 
Q 2172 -91 1784 -91 
Q 1150 -91 751 415 
Q 353 922 353 1747 
Q 353 2572 751 3078 
Q 1150 3584 1784 3584 
Q 2172 3584 2448 3432 
Q 2725 3281 2906 2969 
z
M 947 1747 
Q 947 1113 1208 752 
Q 1469 391 1925 391 
Q 2381 391 2643 752 
Q 2906 1113 2906 1747 
Q 2906 2381 2643 2742 
Q 2381 3103 1925 3103 
Q 1469 3103 1208 2742 
Q 947 2381 947 1747 
z
" transform="scale(0.015625)"/>
       <path id="DejaVuSans-6e" d="M 3513 2113 
L 3513 0 
L 2938 0 
L 2938 2094 
Q 2938 2591 2744 2837 
Q 2550 3084 2163 3084 
Q 1697 3084 1428 2787 
Q 1159 2491 1159 1978 
L 1159 0 
L 581 0 
L 581 3500 
L 1159 3500 
L 1159 2956 
Q 1366 3272 1645 3428 
Q 1925 3584 2291 3584 
Q 2894 3584 3203 3211 
Q 3513 2838 3513 2113 
z
" transform="scale(0.015625)"/>
      </defs>
      <use xlink:href="#DejaVuSans-4e"/>
      <use xlink:href="#DejaVuSans-75" x="74.804688"/>
      <use xlink:href="#DejaVuSans-6d" x="138.183594"/>
      <use xlink:href="#DejaVuSans-62" x="235.595703"/>
      <use xlink:href="#DejaVuSans-65" x="299.072266"/>
      <use xlink:href="#DejaVuSans-72" x="360.595703"/>
      <use xlink:href="#DejaVuSans-20" x="401.708984"/>
      <use xlink:href="#DejaVuSans-6f" x="433.496094"/>
      <use xlink:href="#DejaVuSans-66" x="494.677734"/>
      <use xlink:href="#DejaVuSans-20" x="529.882812"/>
      <use xlink:href="#DejaVuSans-73" x="561.669922"/>
      <use xlink:href="#DejaVuSans-63" x="613.769531"/>
      <use xlink:href="#DejaVuSans-61" x="668.75"/>
      <use xlink:href="#DejaVuSans-74" x="730.029297"/>
      <use xlink:href="#DejaVuSans-74" x="769.238281"/>
      <use xlink:href="#DejaVuSans-65" x="808.447266"/>
      <use xlink:href="#DejaVuSans-72" x="869.970703"/>
      <use xlink:href="#DejaVuSans-65" x="908.833984"/>
      <use xlink:href="#DejaVuSans-64" x="970.357422"/>
      <use xlink:href="#DejaVuSans-20" x="1033.833984"/>
      <use xlink:href="#DejaVuSans-6e" x="1065.621094"/>
      <use xlink:href="#DejaVuSans-6f" x="1129"/>
      <use xlink:href="#DejaVuSans-64" x="1190.181641"/>
      <use xlink:href="#DejaVuSans-65" x="1253.658203"/>
      <use xlink:href="#DejaVuSans-73" x="1315.181641"/>
     </g>
    </g>
   </g>
   <g id="matplotlib.axis_6">
    <g id="ytick_15">
     <g id="line2d_61">
      <path d="M 67.46112 521.463751 
L 553.74336 521.463751 
" clip-path="url(#pe99cf205f2)" style="fill: none; stroke-dasharray: 2.96,1.28; stroke-dashoffset: 0; stroke: #b0b0b0; stroke-opacity: 0.4; stroke-width: 0.8"/>
     </g>
     <g id="line2d_62">
      <g>
       <use xlink:href="#m4216dcaa9b" x="67.46112" y="521.463751" style="stroke: #000000; stroke-width: 0.8"/>
      </g>
     </g>
     <g id="text_23">
      <!-- 0 -->
      <g transform="translate(54.09862 525.26297) scale(0.1 -0.1)">
       <use xlink:href="#DejaVuSans-30"/>
      </g>
     </g>
    </g>
    <g id="ytick_16">
     <g id="line2d_63">
      <path d="M 67.46112 498.239785 
L 553.74336 498.239785 
" clip-path="url(#pe99cf205f2)" style="fill: none; stroke-dasharray: 2.96,1.28; stroke-dashoffset: 0; stroke: #b0b0b0; stroke-opacity: 0.4; stroke-width: 0.8"/>
     </g>
     <g id="line2d_64">
      <g>
       <use xlink:href="#m4216dcaa9b" x="67.46112" y="498.239785" style="stroke: #000000; stroke-width: 0.8"/>
      </g>
     </g>
     <g id="text_24">
      <!-- 25 -->
      <g transform="translate(47.73612 502.039003) scale(0.1 -0.1)">
       <use xlink:href="#DejaVuSans-32"/>
       <use xlink:href="#DejaVuSans-35" x="63.623047"/>
      </g>
     </g>
    </g>
    <g id="ytick_17">
     <g id="line2d_65">
      <path d="M 67.46112 475.015818 
L 553.74336 475.015818 
" clip-path="url(#pe99cf205f2)" style="fill: none; stroke-dasharray: 2.96,1.28; stroke-dashoffset: 0; stroke: #b0b0b0; stroke-opacity: 0.4; stroke-width: 0.8"/>
     </g>
     <g id="line2d_66">
      <g>
       <use xlink:href="#m4216dcaa9b" x="67.46112" y="475.015818" style="stroke: #000000; stroke-width: 0.8"/>
      </g>
     </g>
     <g id="text_25">
      <!-- 50 -->
      <g transform="translate(47.73612 478.815037) scale(0.1 -0.1)">
       <use xlink:href="#DejaVuSans-35"/>
       <use xlink:href="#DejaVuSans-30" x="63.623047"/>
      </g>
     </g>
    </g>
    <g id="ytick_18">
     <g id="line2d_67">
      <path d="M 67.46112 451.791852 
L 553.74336 451.791852 
" clip-path="url(#pe99cf205f2)" style="fill: none; stroke-dasharray: 2.96,1.28; stroke-dashoffset: 0; stroke: #b0b0b0; stroke-opacity: 0.4; stroke-width: 0.8"/>
     </g>
     <g id="line2d_68">
      <g>
       <use xlink:href="#m4216dcaa9b" x="67.46112" y="451.791852" style="stroke: #000000; stroke-width: 0.8"/>
      </g>
     </g>
     <g id="text_26">
      <!-- 75 -->
      <g transform="translate(47.73612 455.591071) scale(0.1 -0.1)">
       <use xlink:href="#DejaVuSans-37"/>
       <use xlink:href="#DejaVuSans-35" x="63.623047"/>
      </g>
     </g>
    </g>
    <g id="ytick_19">
     <g id="line2d_69">
      <path d="M 67.46112 428.567885 
L 553.74336 428.567885 
" clip-path="url(#pe99cf205f2)" style="fill: none; stroke-dasharray: 2.96,1.28; stroke-dashoffset: 0; stroke: #b0b0b0; stroke-opacity: 0.4; stroke-width: 0.8"/>
     </g>
     <g id="line2d_70">
      <g>
       <use xlink:href="#m4216dcaa9b" x="67.46112" y="428.567885" style="stroke: #000000; stroke-width: 0.8"/>
      </g>
     </g>
     <g id="text_27">
      <!-- 100 -->
      <g transform="translate(41.37362 432.367104) scale(0.1 -0.1)">
       <use xlink:href="#DejaVuSans-31"/>
       <use xlink:href="#DejaVuSans-30" x="63.623047"/>
       <use xlink:href="#DejaVuSans-30" x="127.246094"/>
      </g>
     </g>
    </g>
    <g id="ytick_20">
     <g id="line2d_71">
      <path d="M 67.46112 405.343919 
L 553.74336 405.343919 
" clip-path="url(#pe99cf205f2)" style="fill: none; stroke-dasharray: 2.96,1.28; stroke-dashoffset: 0; stroke: #b0b0b0; stroke-opacity: 0.4; stroke-width: 0.8"/>
     </g>
     <g id="line2d_72">
      <g>
       <use xlink:href="#m4216dcaa9b" x="67.46112" y="405.343919" style="stroke: #000000; stroke-width: 0.8"/>
      </g>
     </g>
     <g id="text_28">
      <!-- 125 -->
      <g transform="translate(41.37362 409.143138) scale(0.1 -0.1)">
       <use xlink:href="#DejaVuSans-31"/>
       <use xlink:href="#DejaVuSans-32" x="63.623047"/>
       <use xlink:href="#DejaVuSans-35" x="127.246094"/>
      </g>
     </g>
    </g>
    <g id="ytick_21">
     <g id="line2d_73">
      <path d="M 67.46112 382.119953 
L 553.74336 382.119953 
" clip-path="url(#pe99cf205f2)" style="fill: none; stroke-dasharray: 2.96,1.28; stroke-dashoffset: 0; stroke: #b0b0b0; stroke-opacity: 0.4; stroke-width: 0.8"/>
     </g>
     <g id="line2d_74">
      <g>
       <use xlink:href="#m4216dcaa9b" x="67.46112" y="382.119953" style="stroke: #000000; stroke-width: 0.8"/>
      </g>
     </g>
     <g id="text_29">
      <!-- 150 -->
      <g transform="translate(41.37362 385.919171) scale(0.1 -0.1)">
       <use xlink:href="#DejaVuSans-31"/>
       <use xlink:href="#DejaVuSans-35" x="63.623047"/>
       <use xlink:href="#DejaVuSans-30" x="127.246094"/>
      </g>
     </g>
    </g>
    <g id="text_30">
     <!-- Total time (s) -->
     <g transform="translate(23.775808 483.977901) rotate(-90) scale(0.1 -0.1)">
      <use xlink:href="#DejaVuSans-54"/>
      <use xlink:href="#DejaVuSans-6f" x="44.083984"/>
      <use xlink:href="#DejaVuSans-74" x="105.265625"/>
      <use xlink:href="#DejaVuSans-61" x="144.474609"/>
      <use xlink:href="#DejaVuSans-6c" x="205.753906"/>
      <use xlink:href="#DejaVuSans-20" x="233.537109"/>
      <use xlink:href="#DejaVuSans-74" x="265.324219"/>
      <use xlink:href="#DejaVuSans-69" x="304.533203"/>
      <use xlink:href="#DejaVuSans-6d" x="332.316406"/>
      <use xlink:href="#DejaVuSans-65" x="429.728516"/>
      <use xlink:href="#DejaVuSans-20" x="491.251953"/>
      <use xlink:href="#DejaVuSans-28" x="523.039062"/>
      <use xlink:href="#DejaVuSans-73" x="562.052734"/>
      <use xlink:href="#DejaVuSans-29" x="614.152344"/>
     </g>
     <!-- $\bf{CSR\_apr}$ -->
     <g transform="translate(34.97362 474.37087) rotate(-90) scale(0.1 -0.1)">
      <defs>
       <path id="DejaVuSans-Bold-53" d="M 3834 4519 
L 3834 3531 
Q 3450 3703 3084 3790 
Q 2719 3878 2394 3878 
Q 1963 3878 1756 3759 
Q 1550 3641 1550 3391 
Q 1550 3203 1689 3098 
Q 1828 2994 2194 2919 
L 2706 2816 
Q 3484 2659 3812 2340 
Q 4141 2022 4141 1434 
Q 4141 663 3683 286 
Q 3225 -91 2284 -91 
Q 1841 -91 1394 -6 
Q 947 78 500 244 
L 500 1259 
Q 947 1022 1364 901 
Q 1781 781 2169 781 
Q 2563 781 2772 912 
Q 2981 1044 2981 1288 
Q 2981 1506 2839 1625 
Q 2697 1744 2272 1838 
L 1806 1941 
Q 1106 2091 782 2419 
Q 459 2747 459 3303 
Q 459 4000 909 4375 
Q 1359 4750 2203 4750 
Q 2588 4750 2994 4692 
Q 3400 4634 3834 4519 
z
" transform="scale(0.015625)"/>
       <path id="DejaVuSans-Bold-52" d="M 2297 2597 
Q 2675 2597 2839 2737 
Q 3003 2878 3003 3200 
Q 3003 3519 2839 3656 
Q 2675 3794 2297 3794 
L 1791 3794 
L 1791 2597 
L 2297 2597 
z
M 1791 1766 
L 1791 0 
L 588 0 
L 588 4666 
L 2425 4666 
Q 3347 4666 3776 4356 
Q 4206 4047 4206 3378 
Q 4206 2916 3982 2619 
Q 3759 2322 3309 2181 
Q 3556 2125 3751 1926 
Q 3947 1728 4147 1325 
L 4800 0 
L 3519 0 
L 2950 1159 
Q 2778 1509 2601 1637 
Q 2425 1766 2131 1766 
L 1791 1766 
z
" transform="scale(0.015625)"/>
      </defs>
      <use xlink:href="#DejaVuSans-Bold-43" transform="translate(0 0.78125)"/>
      <use xlink:href="#DejaVuSans-Bold-53" transform="translate(73.388672 0.78125)"/>
      <use xlink:href="#DejaVuSans-Bold-52" transform="translate(145.410156 0.78125)"/>
      <use xlink:href="#DejaVuSans-Bold-5f" transform="translate(222.412109 0.78125)"/>
      <use xlink:href="#DejaVuSans-Bold-61" transform="translate(272.412109 0.78125)"/>
      <use xlink:href="#DejaVuSans-Bold-70" transform="translate(339.892578 0.78125)"/>
      <use xlink:href="#DejaVuSans-Bold-72" transform="translate(411.474609 0.78125)"/>
     </g>
    </g>
   </g>
   <g id="line2d_75">
    <path d="M 67.46112 475.566877 
L 553.74336 475.566877 
" clip-path="url(#pe99cf205f2)" style="fill: none; stroke-dasharray: 3.7,1.6; stroke-dashoffset: 0; stroke: #000000"/>
   </g>
   <g id="patch_58">
    <path d="M 67.46112 521.463751 
L 67.46112 381.177989 
" style="fill: none; stroke: #000000; stroke-width: 0.8; stroke-linejoin: miter; stroke-linecap: square"/>
   </g>
   <g id="patch_59">
    <path d="M 553.74336 521.463751 
L 553.74336 381.177989 
" style="fill: none; stroke: #000000; stroke-width: 0.8; stroke-linejoin: miter; stroke-linecap: square"/>
   </g>
   <g id="patch_60">
    <path d="M 67.46112 521.463751 
L 553.74336 521.463751 
" style="fill: none; stroke: #000000; stroke-width: 0.8; stroke-linejoin: miter; stroke-linecap: square"/>
   </g>
   <g id="patch_61">
    <path d="M 67.46112 381.177989 
L 553.74336 381.177989 
" style="fill: none; stroke: #000000; stroke-width: 0.8; stroke-linejoin: miter; stroke-linecap: square"/>
   </g>
  </g>
  <g id="text_31">
   <!-- Average total time of Reverse mode (256 cores) -->
   <g transform="translate(91.343156 21.789172) scale(0.14 -0.14)">
    <defs>
     <path id="DejaVuSans-Bold-41" d="M 3419 850 
L 1538 850 
L 1241 0 
L 31 0 
L 1759 4666 
L 3194 4666 
L 4922 0 
L 3713 0 
L 3419 850 
z
M 1838 1716 
L 3116 1716 
L 2478 3572 
L 1838 1716 
z
" transform="scale(0.015625)"/>
     <path id="DejaVuSans-Bold-76" d="M 97 3500 
L 1216 3500 
L 2088 1081 
L 2956 3500 
L 4078 3500 
L 2700 0 
L 1472 0 
L 97 3500 
z
" transform="scale(0.015625)"/>
     <path id="DejaVuSans-Bold-65" d="M 4031 1759 
L 4031 1441 
L 1416 1441 
Q 1456 1047 1700 850 
Q 1944 653 2381 653 
Q 2734 653 3104 758 
Q 3475 863 3866 1075 
L 3866 213 
Q 3469 63 3072 -14 
Q 2675 -91 2278 -91 
Q 1328 -91 801 392 
Q 275 875 275 1747 
Q 275 2603 792 3093 
Q 1309 3584 2216 3584 
Q 3041 3584 3536 3087 
Q 4031 2591 4031 1759 
z
M 2881 2131 
Q 2881 2450 2695 2645 
Q 2509 2841 2209 2841 
Q 1884 2841 1681 2658 
Q 1478 2475 1428 2131 
L 2881 2131 
z
" transform="scale(0.015625)"/>
     <path id="DejaVuSans-Bold-67" d="M 2919 594 
Q 2688 288 2409 144 
Q 2131 0 1766 0 
Q 1125 0 706 504 
Q 288 1009 288 1791 
Q 288 2575 706 3076 
Q 1125 3578 1766 3578 
Q 2131 3578 2409 3434 
Q 2688 3291 2919 2981 
L 2919 3500 
L 4044 3500 
L 4044 353 
Q 4044 -491 3511 -936 
Q 2978 -1381 1966 -1381 
Q 1638 -1381 1331 -1331 
Q 1025 -1281 716 -1178 
L 716 -306 
Q 1009 -475 1290 -558 
Q 1572 -641 1856 -641 
Q 2406 -641 2662 -400 
Q 2919 -159 2919 353 
L 2919 594 
z
M 2181 2772 
Q 1834 2772 1640 2515 
Q 1447 2259 1447 1791 
Q 1447 1309 1634 1061 
Q 1822 813 2181 813 
Q 2531 813 2725 1069 
Q 2919 1325 2919 1791 
Q 2919 2259 2725 2515 
Q 2531 2772 2181 2772 
z
" transform="scale(0.015625)"/>
     <path id="DejaVuSans-Bold-20" transform="scale(0.015625)"/>
     <path id="DejaVuSans-Bold-74" d="M 1759 4494 
L 1759 3500 
L 2913 3500 
L 2913 2700 
L 1759 2700 
L 1759 1216 
Q 1759 972 1856 886 
Q 1953 800 2241 800 
L 2816 800 
L 2816 0 
L 1856 0 
Q 1194 0 917 276 
Q 641 553 641 1216 
L 641 2700 
L 84 2700 
L 84 3500 
L 641 3500 
L 641 4494 
L 1759 4494 
z
" transform="scale(0.015625)"/>
     <path id="DejaVuSans-Bold-6f" d="M 2203 2784 
Q 1831 2784 1636 2517 
Q 1441 2250 1441 1747 
Q 1441 1244 1636 976 
Q 1831 709 2203 709 
Q 2569 709 2762 976 
Q 2956 1244 2956 1747 
Q 2956 2250 2762 2517 
Q 2569 2784 2203 2784 
z
M 2203 3584 
Q 3106 3584 3614 3096 
Q 4122 2609 4122 1747 
Q 4122 884 3614 396 
Q 3106 -91 2203 -91 
Q 1297 -91 786 396 
Q 275 884 275 1747 
Q 275 2609 786 3096 
Q 1297 3584 2203 3584 
z
" transform="scale(0.015625)"/>
     <path id="DejaVuSans-Bold-6c" d="M 538 4863 
L 1656 4863 
L 1656 0 
L 538 0 
L 538 4863 
z
" transform="scale(0.015625)"/>
     <path id="DejaVuSans-Bold-69" d="M 538 3500 
L 1656 3500 
L 1656 0 
L 538 0 
L 538 3500 
z
M 538 4863 
L 1656 4863 
L 1656 3950 
L 538 3950 
L 538 4863 
z
" transform="scale(0.015625)"/>
     <path id="DejaVuSans-Bold-6d" d="M 3781 2919 
Q 3994 3244 4286 3414 
Q 4578 3584 4928 3584 
Q 5531 3584 5847 3212 
Q 6163 2841 6163 2131 
L 6163 0 
L 5038 0 
L 5038 1825 
Q 5041 1866 5042 1909 
Q 5044 1953 5044 2034 
Q 5044 2406 4934 2573 
Q 4825 2741 4581 2741 
Q 4263 2741 4089 2478 
Q 3916 2216 3909 1719 
L 3909 0 
L 2784 0 
L 2784 1825 
Q 2784 2406 2684 2573 
Q 2584 2741 2328 2741 
Q 2006 2741 1831 2477 
Q 1656 2213 1656 1722 
L 1656 0 
L 531 0 
L 531 3500 
L 1656 3500 
L 1656 2988 
Q 1863 3284 2130 3434 
Q 2397 3584 2719 3584 
Q 3081 3584 3359 3409 
Q 3638 3234 3781 2919 
z
" transform="scale(0.015625)"/>
     <path id="DejaVuSans-Bold-66" d="M 2841 4863 
L 2841 4128 
L 2222 4128 
Q 1984 4128 1890 4042 
Q 1797 3956 1797 3744 
L 1797 3500 
L 2753 3500 
L 2753 2700 
L 1797 2700 
L 1797 0 
L 678 0 
L 678 2700 
L 122 2700 
L 122 3500 
L 678 3500 
L 678 3744 
Q 678 4316 997 4589 
Q 1316 4863 1984 4863 
L 2841 4863 
z
" transform="scale(0.015625)"/>
     <path id="DejaVuSans-Bold-64" d="M 2919 2988 
L 2919 4863 
L 4044 4863 
L 4044 0 
L 2919 0 
L 2919 506 
Q 2688 197 2409 53 
Q 2131 -91 1766 -91 
Q 1119 -91 703 423 
Q 288 938 288 1747 
Q 288 2556 703 3070 
Q 1119 3584 1766 3584 
Q 2128 3584 2408 3439 
Q 2688 3294 2919 2988 
z
M 2181 722 
Q 2541 722 2730 984 
Q 2919 1247 2919 1747 
Q 2919 2247 2730 2509 
Q 2541 2772 2181 2772 
Q 1825 2772 1636 2509 
Q 1447 2247 1447 1747 
Q 1447 1247 1636 984 
Q 1825 722 2181 722 
z
" transform="scale(0.015625)"/>
     <path id="DejaVuSans-Bold-28" d="M 2413 -844 
L 1484 -844 
Q 1006 -72 778 623 
Q 550 1319 550 2003 
Q 550 2688 779 3389 
Q 1009 4091 1484 4856 
L 2413 4856 
Q 2013 4116 1813 3408 
Q 1613 2700 1613 2009 
Q 1613 1319 1811 609 
Q 2009 -100 2413 -844 
z
" transform="scale(0.015625)"/>
     <path id="DejaVuSans-Bold-32" d="M 1844 884 
L 3897 884 
L 3897 0 
L 506 0 
L 506 884 
L 2209 2388 
Q 2438 2594 2547 2791 
Q 2656 2988 2656 3200 
Q 2656 3528 2436 3728 
Q 2216 3928 1850 3928 
Q 1569 3928 1234 3808 
Q 900 3688 519 3450 
L 519 4475 
Q 925 4609 1322 4679 
Q 1719 4750 2100 4750 
Q 2938 4750 3402 4381 
Q 3866 4013 3866 3353 
Q 3866 2972 3669 2642 
Q 3472 2313 2841 1759 
L 1844 884 
z
" transform="scale(0.015625)"/>
     <path id="DejaVuSans-Bold-35" d="M 678 4666 
L 3669 4666 
L 3669 3781 
L 1638 3781 
L 1638 3059 
Q 1775 3097 1914 3117 
Q 2053 3138 2203 3138 
Q 3056 3138 3531 2711 
Q 4006 2284 4006 1522 
Q 4006 766 3489 337 
Q 2972 -91 2053 -91 
Q 1656 -91 1267 -14 
Q 878 63 494 219 
L 494 1166 
Q 875 947 1217 837 
Q 1559 728 1863 728 
Q 2300 728 2551 942 
Q 2803 1156 2803 1522 
Q 2803 1891 2551 2103 
Q 2300 2316 1863 2316 
Q 1603 2316 1309 2248 
Q 1016 2181 678 2041 
L 678 4666 
z
" transform="scale(0.015625)"/>
     <path id="DejaVuSans-Bold-36" d="M 2316 2303 
Q 2000 2303 1842 2098 
Q 1684 1894 1684 1484 
Q 1684 1075 1842 870 
Q 2000 666 2316 666 
Q 2634 666 2792 870 
Q 2950 1075 2950 1484 
Q 2950 1894 2792 2098 
Q 2634 2303 2316 2303 
z
M 3803 4544 
L 3803 3681 
Q 3506 3822 3243 3889 
Q 2981 3956 2731 3956 
Q 2194 3956 1894 3657 
Q 1594 3359 1544 2772 
Q 1750 2925 1990 3001 
Q 2231 3078 2516 3078 
Q 3231 3078 3670 2659 
Q 4109 2241 4109 1563 
Q 4109 813 3618 361 
Q 3128 -91 2303 -91 
Q 1394 -91 895 523 
Q 397 1138 397 2266 
Q 397 3422 980 4083 
Q 1563 4744 2578 4744 
Q 2900 4744 3203 4694 
Q 3506 4644 3803 4544 
z
" transform="scale(0.015625)"/>
     <path id="DejaVuSans-Bold-63" d="M 3366 3391 
L 3366 2478 
Q 3138 2634 2908 2709 
Q 2678 2784 2431 2784 
Q 1963 2784 1702 2511 
Q 1441 2238 1441 1747 
Q 1441 1256 1702 982 
Q 1963 709 2431 709 
Q 2694 709 2930 787 
Q 3166 866 3366 1019 
L 3366 103 
Q 3103 6 2833 -42 
Q 2563 -91 2291 -91 
Q 1344 -91 809 395 
Q 275 881 275 1747 
Q 275 2613 809 3098 
Q 1344 3584 2291 3584 
Q 2566 3584 2833 3536 
Q 3100 3488 3366 3391 
z
" transform="scale(0.015625)"/>
     <path id="DejaVuSans-Bold-29" d="M 513 -844 
Q 913 -100 1113 609 
Q 1313 1319 1313 2009 
Q 1313 2700 1113 3408 
Q 913 4116 513 4856 
L 1441 4856 
Q 1916 4091 2145 3389 
Q 2375 2688 2375 2003 
Q 2375 1319 2147 623 
Q 1919 -72 1441 -844 
L 513 -844 
z
" transform="scale(0.015625)"/>
    </defs>
    <use xlink:href="#DejaVuSans-Bold-41"/>
    <use xlink:href="#DejaVuSans-Bold-76" x="73.767578"/>
    <use xlink:href="#DejaVuSans-Bold-65" x="138.953125"/>
    <use xlink:href="#DejaVuSans-Bold-72" x="206.775391"/>
    <use xlink:href="#DejaVuSans-Bold-61" x="256.091797"/>
    <use xlink:href="#DejaVuSans-Bold-67" x="323.572266"/>
    <use xlink:href="#DejaVuSans-Bold-65" x="395.154297"/>
    <use xlink:href="#DejaVuSans-Bold-20" x="462.976562"/>
    <use xlink:href="#DejaVuSans-Bold-74" x="497.791016"/>
    <use xlink:href="#DejaVuSans-Bold-6f" x="545.59375"/>
    <use xlink:href="#DejaVuSans-Bold-74" x="614.294922"/>
    <use xlink:href="#DejaVuSans-Bold-61" x="662.097656"/>
    <use xlink:href="#DejaVuSans-Bold-6c" x="729.578125"/>
    <use xlink:href="#DejaVuSans-Bold-20" x="763.855469"/>
    <use xlink:href="#DejaVuSans-Bold-74" x="798.669922"/>
    <use xlink:href="#DejaVuSans-Bold-69" x="846.472656"/>
    <use xlink:href="#DejaVuSans-Bold-6d" x="880.75"/>
    <use xlink:href="#DejaVuSans-Bold-65" x="984.949219"/>
    <use xlink:href="#DejaVuSans-Bold-20" x="1052.771484"/>
    <use xlink:href="#DejaVuSans-Bold-6f" x="1087.585938"/>
    <use xlink:href="#DejaVuSans-Bold-66" x="1156.287109"/>
    <use xlink:href="#DejaVuSans-Bold-20" x="1199.792969"/>
    <use xlink:href="#DejaVuSans-Bold-52" x="1234.607422"/>
    <use xlink:href="#DejaVuSans-Bold-65" x="1311.609375"/>
    <use xlink:href="#DejaVuSans-Bold-76" x="1379.431641"/>
    <use xlink:href="#DejaVuSans-Bold-65" x="1444.617188"/>
    <use xlink:href="#DejaVuSans-Bold-72" x="1512.439453"/>
    <use xlink:href="#DejaVuSans-Bold-73" x="1561.755859"/>
    <use xlink:href="#DejaVuSans-Bold-65" x="1621.277344"/>
    <use xlink:href="#DejaVuSans-Bold-20" x="1689.099609"/>
    <use xlink:href="#DejaVuSans-Bold-6d" x="1723.914062"/>
    <use xlink:href="#DejaVuSans-Bold-6f" x="1828.113281"/>
    <use xlink:href="#DejaVuSans-Bold-64" x="1896.814453"/>
    <use xlink:href="#DejaVuSans-Bold-65" x="1968.396484"/>
    <use xlink:href="#DejaVuSans-Bold-20" x="2036.21875"/>
    <use xlink:href="#DejaVuSans-Bold-28" x="2071.033203"/>
    <use xlink:href="#DejaVuSans-Bold-32" x="2116.736328"/>
    <use xlink:href="#DejaVuSans-Bold-35" x="2186.316406"/>
    <use xlink:href="#DejaVuSans-Bold-36" x="2255.896484"/>
    <use xlink:href="#DejaVuSans-Bold-20" x="2325.476562"/>
    <use xlink:href="#DejaVuSans-Bold-63" x="2360.291016"/>
    <use xlink:href="#DejaVuSans-Bold-6f" x="2419.568359"/>
    <use xlink:href="#DejaVuSans-Bold-72" x="2488.269531"/>
    <use xlink:href="#DejaVuSans-Bold-65" x="2537.585938"/>
    <use xlink:href="#DejaVuSans-Bold-73" x="2605.408203"/>
    <use xlink:href="#DejaVuSans-Bold-29" x="2664.929688"/>
   </g>
  </g>
  <g id="legend_1">
   <g id="patch_62">
    <path d="M 81.181125 62.466837 
L 480.994875 62.466837 
Q 482.794875 62.466837 482.794875 60.666837 
L 482.794875 34.1784 
Q 482.794875 32.3784 480.994875 32.3784 
L 81.181125 32.3784 
Q 79.381125 32.3784 79.381125 34.1784 
L 79.381125 60.666837 
Q 79.381125 62.466837 81.181125 62.466837 
z
" style="fill: #ffffff; opacity: 0.8; stroke: #cccccc; stroke-linejoin: miter"/>
   </g>
   <g id="text_32">
    <!-- Processes-Threads -->
    <g transform="translate(235.009094 43.576838) scale(0.1 -0.1)">
     <defs>
      <path id="DejaVuSans-50" d="M 1259 4147 
L 1259 2394 
L 2053 2394 
Q 2494 2394 2734 2622 
Q 2975 2850 2975 3272 
Q 2975 3691 2734 3919 
Q 2494 4147 2053 4147 
L 1259 4147 
z
M 628 4666 
L 2053 4666 
Q 2838 4666 3239 4311 
Q 3641 3956 3641 3272 
Q 3641 2581 3239 2228 
Q 2838 1875 2053 1875 
L 1259 1875 
L 1259 0 
L 628 0 
L 628 4666 
z
" transform="scale(0.015625)"/>
      <path id="DejaVuSans-2d" d="M 313 2009 
L 1997 2009 
L 1997 1497 
L 313 1497 
L 313 2009 
z
" transform="scale(0.015625)"/>
      <path id="DejaVuSans-68" d="M 3513 2113 
L 3513 0 
L 2938 0 
L 2938 2094 
Q 2938 2591 2744 2837 
Q 2550 3084 2163 3084 
Q 1697 3084 1428 2787 
Q 1159 2491 1159 1978 
L 1159 0 
L 581 0 
L 581 4863 
L 1159 4863 
L 1159 2956 
Q 1366 3272 1645 3428 
Q 1925 3584 2291 3584 
Q 2894 3584 3203 3211 
Q 3513 2838 3513 2113 
z
" transform="scale(0.015625)"/>
     </defs>
     <use xlink:href="#DejaVuSans-50"/>
     <use xlink:href="#DejaVuSans-72" x="58.552734"/>
     <use xlink:href="#DejaVuSans-6f" x="97.416016"/>
     <use xlink:href="#DejaVuSans-63" x="158.597656"/>
     <use xlink:href="#DejaVuSans-65" x="213.578125"/>
     <use xlink:href="#DejaVuSans-73" x="275.101562"/>
     <use xlink:href="#DejaVuSans-73" x="327.201172"/>
     <use xlink:href="#DejaVuSans-65" x="379.300781"/>
     <use xlink:href="#DejaVuSans-73" x="440.824219"/>
     <use xlink:href="#DejaVuSans-2d" x="492.923828"/>
     <use xlink:href="#DejaVuSans-54" x="519.882812"/>
     <use xlink:href="#DejaVuSans-68" x="580.966797"/>
     <use xlink:href="#DejaVuSans-72" x="644.345703"/>
     <use xlink:href="#DejaVuSans-65" x="683.208984"/>
     <use xlink:href="#DejaVuSans-61" x="744.732422"/>
     <use xlink:href="#DejaVuSans-64" x="806.011719"/>
     <use xlink:href="#DejaVuSans-73" x="869.488281"/>
    </g>
   </g>
   <g id="line2d_76">
    <path d="M 82.981125 53.845119 
L 91.981125 53.845119 
L 100.981125 53.845119 
" style="fill: none; stroke: #ffffff; stroke-width: 1.5; stroke-linecap: square"/>
    <defs>
     <path id="m891ad5c425" d="M -4 4 
L 4 4 
L 4 -4 
L -4 -4 
z
" style="stroke: #ffffff; stroke-linejoin: miter"/>
    </defs>
    <g>
     <use xlink:href="#m891ad5c425" x="91.981125" y="53.845119" style="fill: #1f77b4; stroke: #ffffff; stroke-linejoin: miter"/>
    </g>
   </g>
   <g id="text_33">
    <!-- 4pr-64th -->
    <g transform="translate(108.181125 56.995119) scale(0.09 -0.09)">
     <defs>
      <path id="DejaVuSans-70" d="M 1159 525 
L 1159 -1331 
L 581 -1331 
L 581 3500 
L 1159 3500 
L 1159 2969 
Q 1341 3281 1617 3432 
Q 1894 3584 2278 3584 
Q 2916 3584 3314 3078 
Q 3713 2572 3713 1747 
Q 3713 922 3314 415 
Q 2916 -91 2278 -91 
Q 1894 -91 1617 61 
Q 1341 213 1159 525 
z
M 3116 1747 
Q 3116 2381 2855 2742 
Q 2594 3103 2138 3103 
Q 1681 3103 1420 2742 
Q 1159 2381 1159 1747 
Q 1159 1113 1420 752 
Q 1681 391 2138 391 
Q 2594 391 2855 752 
Q 3116 1113 3116 1747 
z
" transform="scale(0.015625)"/>
     </defs>
     <use xlink:href="#DejaVuSans-34"/>
     <use xlink:href="#DejaVuSans-70" x="63.623047"/>
     <use xlink:href="#DejaVuSans-72" x="127.099609"/>
     <use xlink:href="#DejaVuSans-2d" x="161.837891"/>
     <use xlink:href="#DejaVuSans-36" x="197.921875"/>
     <use xlink:href="#DejaVuSans-34" x="261.544922"/>
     <use xlink:href="#DejaVuSans-74" x="325.167969"/>
     <use xlink:href="#DejaVuSans-68" x="364.376953"/>
    </g>
   </g>
   <g id="line2d_77">
    <path d="M 164.678625 53.845119 
L 173.678625 53.845119 
L 182.678625 53.845119 
" style="fill: none; stroke: #ffffff; stroke-width: 1.5; stroke-linecap: square"/>
    <defs>
     <path id="m519a4cf02f" d="M -4 4 
L 4 4 
L 4 -4 
L -4 -4 
z
" style="stroke: #ffffff; stroke-linejoin: miter"/>
    </defs>
    <g>
     <use xlink:href="#m519a4cf02f" x="173.678625" y="53.845119" style="fill: #ff7f0e; stroke: #ffffff; stroke-linejoin: miter"/>
    </g>
   </g>
   <g id="text_34">
    <!-- 8pr-32th -->
    <g transform="translate(189.878625 56.995119) scale(0.09 -0.09)">
     <use xlink:href="#DejaVuSans-38"/>
     <use xlink:href="#DejaVuSans-70" x="63.623047"/>
     <use xlink:href="#DejaVuSans-72" x="127.099609"/>
     <use xlink:href="#DejaVuSans-2d" x="161.837891"/>
     <use xlink:href="#DejaVuSans-33" x="197.921875"/>
     <use xlink:href="#DejaVuSans-32" x="261.544922"/>
     <use xlink:href="#DejaVuSans-74" x="325.167969"/>
     <use xlink:href="#DejaVuSans-68" x="364.376953"/>
    </g>
   </g>
   <g id="line2d_78">
    <path d="M 246.376125 53.845119 
L 255.376125 53.845119 
L 264.376125 53.845119 
" style="fill: none; stroke: #ffffff; stroke-width: 1.5; stroke-linecap: square"/>
    <defs>
     <path id="m8db54995d7" d="M -4 4 
L 4 4 
L 4 -4 
L -4 -4 
z
" style="stroke: #ffffff; stroke-linejoin: miter"/>
    </defs>
    <g>
     <use xlink:href="#m8db54995d7" x="255.376125" y="53.845119" style="fill: #2ca02c; stroke: #ffffff; stroke-linejoin: miter"/>
    </g>
   </g>
   <g id="text_35">
    <!-- 16pr-16th -->
    <g transform="translate(271.576125 56.995119) scale(0.09 -0.09)">
     <use xlink:href="#DejaVuSans-31"/>
     <use xlink:href="#DejaVuSans-36" x="63.623047"/>
     <use xlink:href="#DejaVuSans-70" x="127.246094"/>
     <use xlink:href="#DejaVuSans-72" x="190.722656"/>
     <use xlink:href="#DejaVuSans-2d" x="225.460938"/>
     <use xlink:href="#DejaVuSans-31" x="261.544922"/>
     <use xlink:href="#DejaVuSans-36" x="325.167969"/>
     <use xlink:href="#DejaVuSans-74" x="388.791016"/>
     <use xlink:href="#DejaVuSans-68" x="428"/>
    </g>
   </g>
   <g id="line2d_79">
    <path d="M 333.799875 53.845119 
L 342.799875 53.845119 
L 351.799875 53.845119 
" style="fill: none; stroke: #ffffff; stroke-width: 1.5; stroke-linecap: square"/>
    <defs>
     <path id="me6ec573691" d="M -4 4 
L 4 4 
L 4 -4 
L -4 -4 
z
" style="stroke: #ffffff; stroke-linejoin: miter"/>
    </defs>
    <g>
     <use xlink:href="#me6ec573691" x="342.799875" y="53.845119" style="fill: #d62728; stroke: #ffffff; stroke-linejoin: miter"/>
    </g>
   </g>
   <g id="text_36">
    <!-- 32pr-8th -->
    <g transform="translate(358.999875 56.995119) scale(0.09 -0.09)">
     <use xlink:href="#DejaVuSans-33"/>
     <use xlink:href="#DejaVuSans-32" x="63.623047"/>
     <use xlink:href="#DejaVuSans-70" x="127.246094"/>
     <use xlink:href="#DejaVuSans-72" x="190.722656"/>
     <use xlink:href="#DejaVuSans-2d" x="225.460938"/>
     <use xlink:href="#DejaVuSans-38" x="261.544922"/>
     <use xlink:href="#DejaVuSans-74" x="325.167969"/>
     <use xlink:href="#DejaVuSans-68" x="364.376953"/>
    </g>
   </g>
   <g id="line2d_80">
    <path d="M 415.497375 53.845119 
L 424.497375 53.845119 
L 433.497375 53.845119 
" style="fill: none; stroke: #ffffff; stroke-width: 1.5; stroke-linecap: square"/>
    <defs>
     <path id="m72f636d2de" d="M -4 4 
L 4 4 
L 4 -4 
L -4 -4 
z
" style="stroke: #ffffff; stroke-linejoin: miter"/>
    </defs>
    <g>
     <use xlink:href="#m72f636d2de" x="424.497375" y="53.845119" style="fill: #9467bd; stroke: #ffffff; stroke-linejoin: miter"/>
    </g>
   </g>
   <g id="text_37">
    <!-- 64pr-4th -->
    <g transform="translate(440.697375 56.995119) scale(0.09 -0.09)">
     <use xlink:href="#DejaVuSans-36"/>
     <use xlink:href="#DejaVuSans-34" x="63.623047"/>
     <use xlink:href="#DejaVuSans-70" x="127.246094"/>
     <use xlink:href="#DejaVuSans-72" x="190.722656"/>
     <use xlink:href="#DejaVuSans-2d" x="225.460938"/>
     <use xlink:href="#DejaVuSans-34" x="261.544922"/>
     <use xlink:href="#DejaVuSans-74" x="325.167969"/>
     <use xlink:href="#DejaVuSans-68" x="364.376953"/>
    </g>
   </g>
  </g>
 </g>
 <defs>
  <clipPath id="pe51a6c5631">
   <rect x="67.46112" y="66.370048" width="486.28224" height="140.285763"/>
  </clipPath>
  <clipPath id="pe0cb3899d3">
   <rect x="67.46112" y="223.774018" width="486.28224" height="140.285763"/>
  </clipPath>
  <clipPath id="pe99cf205f2">
   <rect x="67.46112" y="381.177989" width="486.28224" height="140.285763"/>
  </clipPath>
 </defs>
</svg>
